<svg id="svg" version="1.1" xmlns="http://www.w3.org/2000/svg" xmlns:xlink="http://www.w3.org/1999/xlink" width="400" height="379.10447761194035" viewBox="0, 0, 400,379.10447761194035"><g id="svgg"><path id="path0" d="M0.000 35.071 L 0.000 70.142 36.588 70.142 L 73.175 70.142 73.175 35.071 L 73.175 0.000 36.588 0.000 L 0.000 0.000 0.000 35.071 M326.825 35.071 L 326.825 70.142 363.412 70.142 L 400.000 70.142 400.000 35.071 L 400.000 0.000 363.412 0.000 L 326.825 0.000 326.825 35.071 M0.000 239.621 L 0.000 379.147 36.588 379.147 L 73.175 379.147 73.175 239.621 L 73.175 100.095 36.588 100.095 L 0.000 100.095 0.000 239.621 M103.128 189.573 L 103.128 279.052 162.844 279.052 L 222.559 279.052 222.559 294.028 L 222.559 309.005 162.844 309.005 L 103.128 309.005 103.128 344.076 L 103.128 379.147 201.517 379.147 L 299.907 379.147 299.811 291.848 L 299.716 204.550 238.578 204.454 L 177.441 204.358 177.441 189.572 L 177.441 174.787 238.673 174.787 L 299.905 174.787 299.905 137.441 L 299.905 100.095 201.517 100.095 L 103.128 100.095 103.128 189.573 M326.825 239.621 L 326.825 379.147 363.412 379.147 L 400.000 379.147 400.000 239.621 L 400.000 100.095 363.412 100.095 L 326.825 100.095 326.825 239.621 " stroke="none" fill="#ffffff" fill-rule="evenodd"/><path id="path1" d="" stroke="none" fill="#100fcfc" fill-rule="evenodd"/></g></svg>