<?xml version='1.0' encoding='utf-8'?>
<svg xmlns="http://www.w3.org/2000/svg" version="1.1" id="Layer_1" x="0px" y="0px" viewBox="0 0 2616.004 796.279" enable-background="new 0 0 2616.004 796.279"> <path d="M2587.963,504.406c-0.314,0.064-0.936,0.197-1.249,0.26c-0.234,0.585-0.436,1.175-0.606,1.77 c-0.33,0.112-0.989,0.324-1.318,0.431c-0.606-0.872-0.845-2.435-2.148-2.376c-2.854-0.08-5.645,1.01-8.5,0.468 c0.435-3.994,1.15-8.13-3.136-7.92c-4.359,0.016-8.733-0.143-13.06,0.399c-2.243,0.361-4.486-0.686-6.666,0.064 c-2.775,0.85-5.677,0.558-8.51,0.617c-1.978-0.085-3.53,1.627-5.528,1.297c-1.377-0.239-2.365,0.888-3.46,1.467 c-0.021,1.18-0.117,2.371,0.09,3.556c0.494,1.058,1.265,2.02,1.504,3.211c-2.764,0.053-5.55-0.17-8.223,0.574 c0.16,1.212,0.601,2.365,1.143,3.471c-1.081,1.87-1.973,1.445,0.712,3.737c-1.084,0.117-2.158,0.149-3.2,0.048 c1.191,1.015,2.318,2.126,3.668,2.982c-0.733,0.494-1.467,0.962-2.163,1.446c0.664,0.702,1.382,1.409,2.078,2.132 c-0.537,0.292-1.037,0.595-1.51,0.909c1.159,1.531-0.239,3.397,0.776,4.97c-0.367,0.505-0.739,1.005-1.063,1.51 c0.58,0.595,1.18,1.196,1.807,1.797c-0.516,0.51-1.042,1.015-1.504,1.531c0.521,0.579,1.074,1.143,1.664,1.722 c-0.558,0.393-1.17,0.765-1.664,1.159c0.393,0.888,1.185,1.441,2.078,1.845c-0.749,0.446-1.472,0.909-2.163,1.377 c0.42,0.76,0.861,1.531,1.286,2.328c-0.76-0.122-1.456-0.25-2.147-0.383c0.563,0.797,1.084,1.627,1.648,2.461 c1.52,0.292,3.046,0.648,4.571,1.068c-0.202,0.478-0.362,0.967-0.489,1.467c-1.01-0.845-2.264-1.09-3.514-0.967 c-0.181,0.675-0.335,1.355-0.457,2.041c0,0-30.308-0.362-36.316,0.085c0.691-1.627,0-3.104-1.255-4.183 c-0.466-0.009-14.611-0.069-15.266,0.074c0.255,1.313,0.574,2.615,0.877,3.934c-1.068-0.835-1.823-2.732-3.423-2.249 c-2.36,0.558-4.709-0.478-7.075-0.181c-12.167,1.154-13.308-0.486-16.197,2.435c0,0-12.227,0.088-17.313-0.133 c-2.711,0.202-5.406,1.063-8.122,0.553c-2.435-0.409-4.965,0.159-7.309-0.68c-2.307-0.769-1.957,0.319-14.825,0.489 c-18.33-0.022-13.361,0.471-18.232-1.701c0.074-1.015,0.122-2.031,0.207-3.035c-1.812-0.925-3.848-0.399-5.751-0.601 c-0.829-1.01-0.569-2.424-0.728-3.615c-3.264-1.456-6.687,0.197-10.047-0.048c-2.403,0.218-4.672-0.532-6.963-1.01 c-2.147,0.245-4.204,1.005-6.357,1.127c-1.775,0-2.988,1.526-4.667,1.839c0.022,0.532,0.67,23.671,0.484,24.314 c0.314,0.521,0.941,1.005,0.787,1.717c-1.137,10.124-1.096,7.527-7.798,6.14c0.686,0.346,1.387,0.67,2.132,1.005 c-0.856,1.366-2.073,3.971-3.95,2.36c-0.643,0.245-1.297,0.489-1.887,0.75c-0.67-0.361-1.313-0.707-1.935-1.052 c0.927-4.987,0.06-5.563-0.165-22.235c-1.031-0.197-2.02-0.691-3.04-0.489c-3.2,0.638-6.48,0.34-9.701,0.383 c-2.185,0.154-3.593-1.706-5.018-3.014c-2.015-0.292-4.736-0.835-5.852,1.361c-2.328,0.133-4.662-0.064-6.964,0.138 c-0.616,0.51-0.675,1.345-0.914,2.047c-2.785,0.016-5.571-0.08-8.335,0.112c0.341,1.623,1.106,11.921,0.595,14.32 c-8.278-2.949-2.028,0.733-11.248,1.021c-0.92-0.09-2.079,0.223-2.573-0.734c-0.686-6.321-2.062-78.599-2.732-81.701 c-18.629-0.235-8.8-0.491-15.979-1.393c-2.913,0.563-5.826,1.239-8.787,1.324c-0.771-0.33-0.718-1.34-1.021-1.967 c-1.382-0.17-2.748-0.526-4.114-0.25c-3.441,0.481-20.449,0.29-20.981,0.335c0.021,0.68,0.048,1.355,0.117,2.052 c-0.813-0.133-1.643-0.25-2.265-0.771c-2.142-1.829-4.773,0.34-7.07,0.601c-0.532-0.004-11.3,2.459-16.425,2.238 c-1.97,4.49,2.68,49.015,2.068,75.885c-1.143,0.229-2.259,0.473-3.381,0.627c-4.059-9.21-2.087-82.136-5.278-89.095 c-5.624-0.308-11.253-0.191-16.872-0.229c-1.993-0.175-3.593,1.414-5.597,1.111c0.032-0.936,0.064-1.871-0.016-2.796 c1.674-0.5,3.487-0.361,5.161-0.983c-1.236-7.954,0.338-9.77-1.861-12.205c-1.876,0.425-3.795,0.611-5.698,0.516 c-0.016-0.585-0.005-1.164,0.037-1.738c0.526-0.021,1.074-0.037,1.653-0.048c-2.146-2.541-1.858-1.046-1.621-5.464 c-1.037-0.967-1.568-2.238-2.047-3.519c-1.153-1.111-2.222,0.361-2.982,1.122c-2.217,0.361-3.923-1.775-6.118-1.579 c-1.414-0.234-2.514,0.771-3.748,1.196c-1.074-0.292-1.929-1.361-3.088-1.079c-2.924,0.537-5.794,1.717-8.808,1.366 c-2.057-0.298-3.418,1.696-5.103,2.504c-0.048,2.637-0.176,5.273-0.308,7.91c-2.206,0.218-4.322,0.882-6.496,1.169 c-0.43,2.945,0.154,5.9,0.138,8.856c0.101,0.845-0.239,2.286,0.983,2.44c1.398,0.207,2.849,0.234,4.231,0.702 c-0.276,0.356-0.531,0.718-0.755,1.079c0.345,0.34,0.723,0.686,1.127,1.042c-0.558,0.542-1.021,1.164-1.653,1.579 c-1.191-0.064-2.238-0.68-3.375-0.845c-2.243-0.409-4.572-0.399-6.692-1.254c-1.042-0.59-2.126,0.144-3.152,0.255 c-1.27,0.048-2.504-0.074-3.737-0.032c1.223,0.298,2.907-0.218,3.785,0.952c-5.65-0.5-11.242,0.664-16.877,0.734 c-1.967-0.037-3.811,0.569-5.565,1.345c0.154-0.951,0.643-1.77,1.393-2.387c-1.85,0.755-3.865,0.914-5.789,1.302 c-0.064,0.489-0.096,0.983-0.112,1.478c-0.968-0.239-1.924-0.51-2.839-0.781c-1.653,2.264-4.587,1.605-6.894,2.525 c0.074,1.77,0.643,3.599,0.117,5.347c-0.983,0.951-2.275,1.472-3.45,2.094c0.032,1.717,1.159,3.848-0.447,5.188 c-1.414,1.143-3.248,1.823-5.076,1.642c-0.021-2.068,0.266-4.359-1.244-6.012c0.319-0.68,0.664-1.35,1.036-2.02 c-0.728-0.702-1.478-1.361-2.217-1.999c0.277-0.452,0.585-0.893,0.914-1.329c-0.388-0.627-0.755-1.249-1.095-1.871 c1.212-1.829-0.176-3.965,0.712-5.9c-2.063-2.222-5.14-1.462-7.793-1.18c-0.032-1.026-0.021-2.047,0.032-3.056 c-2.711-2.344-6.528-1.106-9.589-0.292c-0.345-0.765-0.648-1.531-0.93-2.286c-2.376,0.122-4.757,0.383-7.096-0.112 c-1.508-64.499-2.767-60.707-1.068-63.697c-2.695-0.949-30.117-6.801-32.967-6.469c-4.117,8.697-7.015,29.051-8.181,31.479 c-6.372,68.962,6.779,47.571-13.645,54.166c0,2.062-0.021,4.13-0.053,6.198c-1.882,0.425-3.79,0.707-5.576,1.403 c0.091,0.8,0.765,38.514,0.781,38.644c-1.446-0.027-2.87-0.17-4.231-0.579c0.335-0.675,0.728-1.329,1.116-1.983 c-0.537-0.569-1.074-1.1-1.488-1.728c0.159-0.734,0.973-1.068,1.478-1.589c-0.601-0.702-1.185-1.403-1.733-2.116 c0.367-0.579,0.771-1.148,1.201-1.712c-0.585-0.696-1.153-1.393-1.685-2.094c0.532-0.51,1.1-0.999,1.685-1.483 c-0.601-0.691-1.164-1.387-1.696-2.089c0.388-0.569,0.819-1.127,1.26-1.685c-0.446-0.569-0.882-1.127-1.276-1.68 c0.335-0.696,0.723-1.371,1.127-2.041c-0.372-0.542-0.776-1.058-0.999-1.648c0.085-0.845,0.739-1.451,1.175-2.137 c-0.633-0.569-1.265-1.127-1.855-1.685c0.542-0.553,1.116-1.09,1.722-1.616c-0.547-0.675-1.095-1.334-1.616-1.993 c0.447-0.633,0.936-1.249,1.419-1.876c-0.526-0.611-1.047-1.223-1.526-1.829c0.478-0.601,0.994-1.18,1.52-1.759 c-0.537-0.606-1.079-1.201-1.579-1.797c0.431-0.585,0.893-1.159,1.366-1.733c-0.606-0.707-1.196-1.409-1.759-2.11 c0.558-0.548,1.143-1.084,1.744-1.621c-0.627-0.542-1.239-1.074-1.823-1.611c0.351-0.728,0.749-1.435,1.164-2.137 c-0.234-0.675-0.446-1.345-0.627-2.009c0.255-0.51,0.558-1.005,0.861-1.504c-0.473-0.702-0.914-1.414-1.302-2.137 c0.457-0.51,0.973-1.005,1.467-1.515c-0.547-0.643-1.09-1.286-1.579-1.93c0.654-0.282,1.345-0.548,2.057-0.808 c-0.548-1.217-1.446-2.19-2.514-2.94c0.569-0.5,1.169-0.978,1.791-1.451c-0.617-0.723-1.223-1.43-1.802-2.142 c0.547-0.51,1.132-1.005,1.728-1.499c-1.695-3.39-1.017,0.091-0.128-5.969c-0.574,0.154-1.127,0.314-1.659,0.478 c1.196-1.387,2.233-3.12,4.237-3.359c0.143-0.335,0.314-0.664,0.51-0.989c-1.791-0.245-2.955-1.563-3.939-2.929 c0.345-0.542,0.845-1.026,1.026-1.674c-0.298-0.872-1.329-1.27-1.552-2.137c0.425-0.595,0.968-1.09,1.515-1.605 c-0.516-0.542-1.068-1.042-1.446-1.653c-0.085-0.967,1.127-1.116,1.712-1.664c-0.702-0.962-1.643-1.685-2.525-2.429 c0.734-0.521,1.504-1.031,2.259-1.568c-0.643-0.585-1.271-1.164-1.866-1.749c0.489-0.675,1.244-1.233,1.409-2.11 c-0.42-0.734-1.084-1.26-1.632-1.845c0.479-0.718,1.031-1.377,1.653-1.999c-0.579-0.734-1.191-1.425-1.802-2.089 c0.494-0.659,1.021-1.302,1.563-1.945c-0.521-0.59-1.154-1.095-1.457-1.802c-0.112-0.994,0.59-1.829,0.951-2.711 c-1.35-0.287-2.716-0.452-4.061-0.585c0.26-2.807-0.712-5.927,0.93-8.441c-6.258-1.403-4.509-2.514-8.728-1.855 c-1.281,1.499-3.344,0.877-5.044,0.967c-0.457-1.494-0.521-3.062-0.851-4.566c-1.616-1.265-3.732,0.021-5.502,0.17 c-1.669-0.473-2.881-1.829-4.438-2.493c-1.068-0.053-2.089,0.255-3.094,0.462c-1.382-0.005-1.457,1.77-2.599,2.185 c-0.532,0.238-6.795,5.072-12.864,3.269c-6.565-0.128-13.321-0.675-19.625,1.51c0.011,1.568,0.021,3.142,0.027,4.715 c0.989,0.085,2.137-0.165,3.009,0.542c-6.375,0.577-7.619-2.131-9.828,1.754c0.298,2.945,0.627,6.299-1.281,8.808 c-0.611,0.792-0.941,1.977-2.025,2.19c-1.185,0.377-2.461,0.951-2.934,2.179c0.213,3.2,0.452,6.448,0.011,9.643 c-0.633,0.882-1.457,1.611-2.073,2.493c0.361,0.569,0.776,1.143,1.207,1.717c-1.292,1.914-1.138,4.226-1.138,6.432 c0.803,0.33,1.616,0.664,2.445,1.042c-0.712,0.436-1.409,0.861-2.084,1.308c-0.053,2.185-0.292,4.391,0.186,6.559 c-3.817,0.255-7.66,0.473-11.466,0.085c0.152-2.95,0.435-14.124-1.738-16.877c-0.909-3.29-0.186-6.783-0.547-10.142 c-0.659-1.361-2.254-1.717-3.588-1.898c-0.521-1.377-0.425-2.854-0.229-4.279c0.356-2.408-0.367-4.779-0.441-7.176 c-1.196-0.319-2.397-0.585-3.588-0.781c-0.08-3.817,0.159-7.649-0.686-11.402c-1.09-0.314-2.169-0.617-3.232-0.909 c0.021-0.781,0.059-1.563,0.128-2.339c-1.929-0.723-3.928-1.552-6.017-1.292c-4.115,0.402-12.608-0.447-16.032,1.993 c-0.531,0.92-0.872,1.94-1.472,2.817c-2.004,1.35-4.135-0.452-6.129-0.898c0.128-0.739,0.276-1.472,0.441-2.201 c-2.833-1.207-6.06-0.675-9.052-1.042c-1.775-0.34-3.471,0.388-5.199,0.468c-1.946-1.34-4.295-1.945-6.108-3.471 c0.25-0.26,0.744-0.787,0.994-1.047c-0.558-0.585-1.111-1.164-1.642-1.733c0.314-2.302-0.335-4.598-0.276-6.905 c0.074-0.999-0.659-2.025-1.68-2.046c-1.313-0.159-2.456-0.771-3.583-1.366c-0.08-2.429,0.011-4.864-0.053-7.288 c-0.4-5.651-3.478-3.703-4.21-3.636c-1.228,0.462-2.504,0.229-3.726-0.027c-3.423-0.76-6.99-0.67-10.45-0.319 c-1.898,1.297-4.231,0.548-6.315,1.037c-0.718,1.51-1.042,3.237-2.748,3.944c-0.303-0.388-0.574-0.776-0.813-1.169 c-0.712-6.99-0.346-14.028-0.399-21.044c-4.731-1.811-16.994-1.32-21.613-3.359c-4.981-2.153-11.035-1.456-15.585,1.334 c-7.461,7.979-5.897,9.722-6.485,15.213c-0.611,1.462-1.494,2.791-2.222,4.194c1.457,0.021,2.966,0.218,3.955,1.425 c-3.779,2.068-7.755,4.04-12.008,4.837c-1.387,3.386-4.428,5.608-7.362,7.575c0.755,1.063,0.112,2.206-0.308,3.264 c-0.675-0.734-1.233-1.536-1.696-2.381c-2.445,0.303-4.885,0.686-7.346,0.532c-1.664-0.17-2.355,1.876-3.896,2.132 c-1.409,0.282-2.631,1.047-3.859,1.733c-1.898,0.186-3.545-1.111-5.348-1.488c-0.144,0.957-0.271,1.919-0.388,2.886 c-3.264-1.297-5.459-4.263-8.478-5.959c-0.808-0.276-1.648,0.016-2.429,0.037c-0.652,10.03,0.88,24.936,0.213,31.692 c-0.367,0.521-1.058,0.436-1.568,0.563c-0.298-0.707-0.563-1.398-0.834-2.089c-2.105,0.973-4.242,1.871-6.326,2.865 c-0.372,2.397-0.074,4.805,0.245,7.187c-1.27,2.334-0.68,5.023-0.33,7.516c-2.823,1.324-6.023,1.318-8.978,2.179 c-0.649-1.743-1.419-3.45-1.797-5.273c1.515-0.064,3.046-0.08,4.587-0.149c-0.425-1.584-2.477-1.292-3.726-1.69 c-0.393-0.638-0.771-1.254-1.143-1.866c0.627-0.606,1.271-1.212,1.924-1.818c-0.5-0.643-0.994-1.281-1.467-1.914 c0.93-1.058,0.967-2.413,0.638-3.716c1.494-0.032,3.014-0.101,4.47-0.579c-0.962-1.563-3.115-1.276-4.641-1.86 c1.503-3.605,1.533-2.33-0.027-5.193c0.67-0.516,1.355-1.026,2.047-1.542c0.069-1.355,0.165-2.78-0.542-3.992 c-1.722-1.366-3.041-3.338-5.305-3.822c-1.442-6.946-1.386,3.698-0.478-13.693c-1.744-0.569-3.434-1.233-5.114-1.93 c-4.538,2.998-5.048,0.555-10.721,1.568c-5.051-1.031-3.77,0.228-18.179-0.043c-0.207-0.266-0.404-0.51-0.585-0.744 c-2.248,0.25-4.508,0.324-6.756,0.271c0.271-4.082-0.765-8.372,0.781-12.279c0.92-2.296-0.957-4.417-0.813-6.714 c0.212-11.423-0.625-8.841-1.068-25.536c-3.322-0.043-6.639,0.005-9.951-0.005c0.069-0.266,0.197-0.803,0.266-1.068 c-1.175-0.016-2.339-0.027-3.482-0.032c-0.329-0.643-0.622-1.281-0.898-1.919c-0.26-0.053-0.787-0.159-1.047-0.213 c0.893-0.893,0.962-2.1-0.17-2.833c-0.696,0.696-1.169,1.871-2.302,1.823c-1.956,0.601-4.034-0.75-5.799,0.595 c-0.305-0.628-1.368-34.123-1.127-38.182c-0.383-0.377-0.744-0.75-1.079-1.122c-0.707,0.324-1.403,0.648-2.078,0.967 c-0.547-3.051,0.197-6.193-0.558-9.196c-3.741-0.218-0.847,4.533-1.738,11.072c-0.34,2.477,0.542,4.896,0.452,7.373 c0.587,10.796-0.025,8.279,0.298,26.227c-0.691,0.08-1.355,0.165-2.004,0.25c-0.213,0.856-0.351,1.733-0.707,2.541 c-1.323,0.223-0.941-1.441-1.265-2.227c-6.002,1.065-2.451,2.971-9.387-0.112c-1.095,1.398-1.738,3.03-1.972,4.784 c-3.258,3.314-5.796-1.971-13.055,1.27c0.585,0.356,1.206,0.712,1.839,1.068c-0.75,0.93-1.44,1.903-1.93,2.982 c-0.542,0.112-1.063,0.229-1.563,0.346c-1.01,4.853,2.149,1.875-0.223,5.868c0.34,1.98,0.416,14.753,0.633,16.239 c1.352,7.418-1.155,14.956,1.855,16.457c-1.366,2.408-0.824,5.454-0.096,8.005c-5.538,1.061-0.434-0.995-7.649,3.359 c-0.106,0.659-0.191,1.324-0.26,1.988c-26.806,0.56-12.304-0.46-23.516-0.675c-0.51-0.734-0.999-1.483-1.472-2.217 c-0.834,0.909-1.669,1.892-2.929,2.153c-0.914,5.236,0.579,10.477,0.112,15.724c-0.154,2.068-1.052,4.077-0.569,6.177 c-0.473,0.505-0.925,1.026-1.345,1.557c0.553,0.787,1.1,1.611,1.573,2.477c-0.648,0.383-1.27,0.781-1.866,1.201 c0.712,0.579,1.462,1.159,2.19,1.77c-0.574,0.659-1.132,1.313-1.68,1.972c0.494,0.622,0.999,1.265,1.483,1.924 c-1.35,0.234-2.775,0.404-3.87,1.27c-2.821,1.629,0.573,15.164-1.945,25.929c-1.515,0.239-3.041,0.367-4.54,0.558 c0.035,2.381,1.267,44.251,0.787,48.531c-0.611,0.324-1.196,0.649-1.77,0.973c-0.085,0.882-0.202,1.765-0.345,2.642 c-1.786-0.287-3.588-0.33-5.374-0.388c-0.676-4.201-0.778-30.214-0.813-30.745c-1.542-0.473-3.142-0.622-4.731-0.654 c-0.537-0.749-1.121-1.435-1.749-2.073c1.239-1.467,0.425-3.136,0.085-4.747c0.001-0.004-0.997-11.829-0.016-16.983 c-1.217-0.983-2.493-2.424-4.21-1.977c-1.541,0.308-2.961-0.505-4.438-0.664c-0.946,0.186-1.77,0.744-2.706,0.835 c-21.618,0.486-6.588,2.186-17.547-0.282c0.372-0.33,0.76-0.654,1.175-0.973c-1.51-1.627-0.957-3.965-1.122-5.975 c0,0-0.659-61.399-0.659-61.4c-0.037-2.073-0.872-4.061-0.601-6.15c-0.558-1.945,0.361-3.864-0.191-5.815 c0.218-1.297,0.335-2.605-0.569-3.678c0.319-0.043,0.952-0.117,1.265-0.159c-1.154-3.96-0.085-8.085-0.84-12.082 c-0.383-2.435,0.936-5.257-0.909-7.298c0.462-0.271,0.941-0.542,1.435-0.808c-0.457-0.542-0.898-1.074-1.334-1.6 c1.898-2.748-0.34-5.996,0.744-8.888c-1.757-2.799-0.713-2.178,0.128-3.87c-0.489-0.409-0.962-0.808-1.425-1.196 c0.218-0.728,0.441-1.457,0.67-2.179c-0.627-0.128-1.239-0.25-1.829-0.361c-0.484-1.01-0.957-2.015-1.387-3.035 c1.473-0.734,2.956-1.462,4.412-2.249c0.005-0.34,0.011-1.021,0.016-1.361c-4.13-0.914-8.367-0.648-12.55-0.792 c-0.951-0.579-2.041-1.371-3.125-0.633c-2.195,1.254-4.768,0.532-7.134,0.861c-2.658,0.633-5.31-0.431-7.984-0.064 c0.308,0.558,0.643,1.106,0.999,1.658c-2.019-0.321-2.773-1.508-6.836,0.824c-0.622,0.691-1.127,1.472-1.664,2.222 c2.217,0.904,4.582,0.936,6.916,0.537c-0.016,0.649-0.021,1.297-0.005,1.956c-2.015-0.016-2.934,1.823-4.114,3.12 c0.851,0.149,1.728,0.245,2.626,0.33c-0.76,0.548-1.494,1.106-2.206,1.685c-0.144,2.169,0.064,4.369-0.367,6.517 c0.415,0.314,0.85,0.638,1.292,0.967c-0.452,1.132-0.973,2.233-1.531,3.317c0.659,0.197,1.329,0.409,2.02,0.638 c-0.59,0.399-1.164,0.803-1.722,1.212c0.383,0.234,0.792,0.468,1.217,0.707c-0.595,0.42-0.882,1.052-1.095,1.712 c0.479,0.101,1.435,0.314,1.914,0.42c-0.59,0.787-1.191,1.557-1.765,2.344c0.558,0.787,1.143,1.557,1.765,2.323 c-0.579,0.712-1.169,1.409-1.781,2.084c0.51,0.611,1.042,1.228,1.573,1.85c-0.579,0.59-1.164,1.159-1.616,1.834 c0.25,1.334,1.945,0.755,2.924,1.09c-0.569,1.472-2.86,1.302-3.019,3.035c1.18,0.08,2.376,0.133,3.588,0.245 c-1.047,0.829-2.206,1.488-3.274,2.264c-0.649,1.185,1.116,1.791,1.76,2.504c-0.292,0.85-0.851,1.526-1.542,2.073 c0.271,0.186,0.808,0.558,1.079,0.744c-0.367,0.824-0.766,1.632-1.26,2.387c1.164,1.653-0.17,3.779,1.058,5.401 c-0.213,0.595-0.633,1.175-0.526,1.834c0.345,0.617,1.148,1.015,1.265,1.754c-0.298,0.643-0.734,1.201-1.116,1.781 c0.25,0.627,0.505,1.249,0.776,1.887c-0.351,0.569-0.675,1.148-0.983,1.728c0.356,0.553,0.739,1.111,1.132,1.669 c-0.346,0.659-0.665,1.324-0.957,2.004c0.787,1.308,0.579,2.791,0.207,4.199c0.335,0.404,0.696,0.813,1.074,1.228 c-0.473,0.569-0.93,1.138-1.371,1.717c0.367,0.765,0.76,1.526,1.17,2.291c-0.404,0.393-0.787,0.792-1.154,1.196 c0.563,1.345,0.595,2.791,0.266,4.21c0.744,0.271,1.478,0.537,2.254,0.829c-0.718,0.877-1.526,1.669-2.318,2.461 c0.739,0.548,1.499,1.095,2.259,1.664c-0.648,0.548-1.302,1.074-1.946,1.611c0.037,0.271,0.112,0.819,0.149,1.09 c0.744,0.186,1.504,0.361,2.291,0.553c-0.734,0.84-2.7,1.393-2.047,2.748c0.643,0.372,1.834,0.207,2.015,1.153 c-0.707,0.622-1.472,1.164-2.206,1.733c0.532,0.526,1.09,1.063,1.653,1.6c-1.175,1.35-0.377,3.056-0.68,4.619 c-0.399,1.494,0.494,2.945,0.106,4.454c0.207,1.972-0.829,4.146,0.579,5.847c-0.473,0.59-0.925,1.18-1.366,1.781 c1.272,1.272,2.133,0.46,0.058,3.886c0.431,0.532,0.877,1.074,1.329,1.621c-0.361,0.526-1.132,0.999-0.877,1.738 c0.271,2.626,0.824,5.321,0.202,7.931c0.359,11.388,0.032,16.531,0.032,16.531c-1.175-0.048-2.45,0.112-3.391-0.696 c-1.265-1.021-2.95-1.478-3.88-2.854c0.558-0.494,1.143-0.973,1.738-1.456c-0.686-0.771-1.675-1.228-2.254-2.047 c-0.393-1.26-0.324-2.583-0.287-3.875c-0.744-0.367-1.483-0.707-2.217-1.021c0.08-1.207-0.064-2.413-0.17-3.604 c0.68-0.159,1.419-0.298,2.132-0.462c-0.696-0.112-1.377-0.218-2.036-0.314c-0.026-1.58-0.006-5.53-1.425-5.714 c-2.908-0.686-5.751-1.664-8.76-1.791c-0.27-2.968-1.696-75.721-1.696-75.721c0.154-2.147,0.25-4.417-0.808-6.368 c-1.329-0.712-3.067-0.282-4.487-0.872c0.436-0.866,0.867-1.743,1.265-2.637c1.818-0.51,3.726-0.808,5.385-1.786 c-2.071-2.38-11.11-0.439-16.356-2.886c-2.933-0.712-13.552,0.847-18.44,3.163c0.011,0.314,0.027,0.941,0.037,1.254 c1.6,0.462,3.46,0.925,4.151,2.647c-1.361,0.494-2.998,0.835-3.843,2.1c0.489,0.106,1.467,0.314,1.956,0.415 c-0.813,0.718-1.669,1.371-2.52,2.02c0.42,0.856,1.143,1.478,1.929,2.025c-0.765,0-1.515,0.011-2.248,0.021 c1.012,2.144,1.283,9.571,1.217,10.333c0.447,0.308,0.909,0.622,1.387,0.941c-0.712,0.548-1.425,1.1-2.105,1.658 c0.409,1.27,1.329,2.201,2.552,2.738c-0.728,0.585-1.457,1.175-2.137,1.791c0.489,0.659,1.026,1.313,1.573,1.961 c-0.335,0.569-0.643,1.143-0.92,1.733c0.377,0.728,0.76,1.472,1.154,2.222c-0.441,0.563-0.856,1.132-1.26,1.706 c0.771,0.377,1.547,0.787,2.318,1.207c-0.808,0.68-1.616,1.361-2.318,2.137c0.377,0.112,1.143,0.34,1.52,0.457 c-0.542,1.839-0.68,3.747-0.617,5.661c-0.329,1.276-0.632,2.599,0.239,3.753c-0.367,0.638-0.728,1.276-1.052,1.935 c0.882,0.532,1.791,1.053,2.775,1.451c-0.712,0.271-1.414,0.542-2.084,0.85c0.537,1.653,0.659,3.503-0.643,4.848 c0.473,0.633,0.973,1.265,1.494,1.898c-0.723,0.744-1.43,1.504-2.126,2.259c0.441,0.648,0.92,1.302,1.446,1.919 c-0.191,0.197-0.585,0.595-0.781,0.792c1.163,5.859,0.367,33.163,0.415,35.349c-2.945-0.058-5.895-0.005-8.797,0.452 c-0.138,1.839-0.133,3.694,0.138,5.523c-0.627,0.053-1.239,0.112-1.834,0.175c0.282,1.302,0.473,2.626,0.521,3.971 c-0.92,0.096-1.823,0.191-2.706,0.292c0.33,3.009-0.967,5.884-0.654,8.893c0.686,2.121-0.409,4.359,0.734,6.411 c-1.164,0.356-2.876,1.106-3.7-0.165c-0.75-5.657,0.275-16.852-0.138-32.096c-0.824-0.813-2.068-0.93-3.072-1.382 c-0.048-1.797-0.043-3.599-0.128-5.39c-2.514,2.686-1.078,3.428-0.547,5.608c-4.099,1-18.523-0.008-39.745,0.526 c-5.068-0.309-1.711,13.405-2.95,27.365c-2.084,0.723-4.274,0.983-6.384,1.552c0.452,0.771,0.941,1.547,1.403,2.344 c-1.042,0.186-2.063,0.521-3.115,0.425c-2.419-0.436-4.63,1.079-7.038,0.978c-3.285-0.117-6.565-0.255-9.839-0.383 c0.543-10.471-0.827-36.432-0.33-41.717c-0.25-0.234-0.75-0.707-0.999-0.941c-0.037,1.292-0.043,2.589-0.064,3.886 c-0.245,0.011-0.739,0.027-0.983,0.037c-0.361-15.03,0.851-9.501-1.563-14.953c1.191,0.489,2.408,0.962,3.673,1.297 c-0.925-1.646-2.403-1.373-1.084-8.595c-0.691-0.09-1.361-0.17-2.02-0.234c-0.574-2.637-0.68-5.321-0.723-8.005 c-4.354-1.438-1.125-2.008-11.072-2.461v1.063c2.089,0.106,4.566-0.489,6.182,1.228c-4.322,0.601-8.739-0.021-13.007,0.856 c-0.585-0.361-1.005-1.164-1.743-1.063c-5.358,0.121-3.838,0.652-4.051,8c-0.611,0.856-1.86,0.93-2.732,1.398 c-0.356,2.355-1.063,4.965,0.356,7.123c-0.633,0.032-1.244,0.069-1.839,0.112c-1.844,2.153-1.324,5.103-1.212,7.708 c0.537,0.383,1.106,0.771,1.68,1.159c-0.968,0.776-1.393,1.93-1.775,3.062c0.595,0.415,1.217,0.835,1.844,1.26 c-0.59,0.59-1.17,1.175-1.738,1.765c-0.161,8.135,0.565,36.013,0.473,47.66c-7.771,0.101-15.548-0.096-23.314,0.085 c-0.106,13.794,0.404,27.572,0.404,41.371c-1.584,0.011-3.142-0.25-4.71-0.319c-1.903,0.16-3.806,0.346-5.709,0.308 c-1.409-1.584-0.872-3.583-0.643-5.454c-0.075-0.532-2.637-90.086-0.957-94.878c0.983-2.684-0.92-5.316-0.665-8.048 c-0.175-1.701,0.5-3.705-0.702-5.13c-0.914-1.116-1.887-2.179-2.695-3.365c-0.303-0.011-0.904-0.037-1.207-0.048 c-0.218,2.52-0.68,5.023-1.26,7.49c-1.361-0.032-2.706-0.043-4.045-0.048c-0.447-0.611-0.877-1.223-1.297-1.823 c-0.335,0.069-1.015,0.213-1.35,0.287c-0.101,0.399-0.303,1.196-0.404,1.6c-2.015-0.436-4.056-0.404-6.06,0.005 c-0.329-0.654-0.622-1.302-0.893-1.956c-0.978,0.096-1.951,0.202-2.897,0.324c-1.021-1.26-0.851-2.854-0.351-4.274 c-0.516-0.011-1.01-0.016-1.494-0.016c0.191,1.079,0.553,2.275-0.298,3.184c-2.955,3.471-1.863,2.195-8.909,2.743 c-0.696-0.845-1.472-1.648-2.583-1.818c-0.112,0.473-0.335,1.425-0.446,1.903c-1.196-0.229-2.28-0.776-3.434-1.079 c-0.989,0.42-1.876,1.026-2.785,1.579c-0.199,1.378,0.182,26.045,0.202,26.583c-1.674,0.096-3.264-1.329-4.864-0.558 c-2.376,0.952-5.172,1.053-7.5-0.053c-2.654,1.377-7.591,1.571-9.775-0.011c-0.872,0.622-1.887,1.031-2.961,0.893 c-2.089-0.175-4.481,0.346-6.23-1.063c-0.558,0.431-1.074,1.031-1.834,0.967c-2.046,0.074-4.104,0.234-6.134-0.005 c-0.643-0.372-1.143-0.914-1.675-1.382c-0.122,0.351-0.367,1.058-0.484,1.409c-3.71,0.218-7.421,0.181-11.125,0.17 c-0.303-0.904-0.149-2.233-1.223-2.605c-3.438,3.704-0.633,18.995-1.207,33.887c-1.35,0.037-2.695,0.058-4.029-0.011 c-0.446,0.404-0.877,0.819-1.297,1.233c-1.361-0.043-2.716-0.064-4.056-0.096c-0.618-4.524-0.316-71.812-1.462-79.139 c0.282-2.45,0.096-4.917,0.287-7.373c-12.138-0.384-26.1,0.515-29.135-0.67c-1.924-0.51-3.79-1.313-5.767-1.51 c-0.723,0.51-0.425,1.382-0.399,2.121c-2.913-0.005-5.831-0.059-8.739,0.043c-0.064,1.371-0.074,2.748-0.085,4.13 c0.229,0.213,0.686,0.633,0.914,0.845c-3.205,1.825-0.948,6.773-2.876,12.545c0.314,1.625,1.515,103.935,0.739,106.28 c0.271,3.514,0.367,7.043,0.122,10.567c-38.404,0.532-23.183-1.625-35.987,3.397c-0.08,0.835-0.144,1.674-0.191,2.525 c-2.312,0.404-4.752-0.122-6.948,0.845c-2.009,0.42-4.088,0.282-6.118,0.34c-0.191-0.978,0.112-2.142-0.489-2.971 c-0.851-0.393-1.807-0.42-2.695-0.601c-0.539-10.658,0.81-27.594-1.212-43.731c-0.39-0.651-7.742-12.433-8.84-11.742 c-2.839,3.136-4.683,7.059-7.49,10.195c-2.648-22.167-11.944-226.026-11.157-239.787c4.12-0.165,8.425-0.436,12.157-2.355 c3.054-3.554,2.055-6.368-1.382-9.499c1.249-1.568,2.828-2.828,4.242-4.247c-0.792-3.95,0.819-7.771,1.159-11.668 c-0.542-0.431-1.233-6.065-3.125-7.293c-1.143-0.856-2.424-1.488-3.609-2.254c-0.861-1.504,0.011-3.7-1.648-4.757 c-1.393-1.643-3.694-0.93-5.544-1.324c-3.884-2.499-2.244-7.032-2.536-14.368c-4.041-0.163-3.002-1.491-3.019-40.175 c-0.197-28.263-1.379-17.489,2.569-28.334c0.114-0.311-2.88-4.15-3.254-4.474c-2.505-2.6-0.814,0.028-1.1-12.407 c0.411-3.115-0.28-6.214-0.408-9.322c-0.124-3.013,0.141-6.049,0.138-9.07c0-0.001-1.278-26.463-1.278-26.463 c-1.035-8.724-1.886,4.779-2.082-25.332c-0.151-23.129,0.752-28.2-2.978-27.665c-0.62,4.873,0.266,43.565,0.293,44.1 c-1.893,5.752-2.536,3.682-2.339,14.463c0.018,0.973-2.387,27.381-0.77,34.658c0.321,1.675-0.045,14.142-0.165,15.835 c-0.558,2.28-3.801,3.205-3.328,5.837c-0.282,2.562,2.302,4.343,2.084,6.894c-0.022,6.735-0.89,56.989,0.234,61.156 c-7.686,2.196-1.226,6.581-2.658,14.687c-2.642,0.569-5.342,0.962-7.915,1.775c-2.195,1.552-1.031,4.667-2.094,6.788 c-1.334,1.478-3.344,2.009-4.853,3.243c-0.845,3.179-0.877,6.559-0.234,9.786c0.462,2.286-0.266,4.959,1.302,6.926 c0.563,0.952,1.85,1.722,1.488,2.987c-1.327,4.072-3.625,7.63,5.821,11.854c2.078,0.287,4.199,0.159,6.304,0.377 c0.345,3.688,0.117,25.759,0.213,60.103c0.096,2.695-1.063,5.246-0.824,7.952c0.631,19.91-2.4,40.235-1.036,57.956 c0.313,4.599-1.312,3.87-1.356,11.7c0.18,37.409-1.29,1.645-1.047,38.804c-0.064,12.12-1.268-4.032-1.052,27.11 c0.149,3.062-1.387,5.959-0.952,9.031c0.441,3.365-0.436,6.735,0.016,10.1c0.255,1.765,0.085,3.572-0.548,5.246 c-1.326,3.33-0.316,12.32-0.755,18.179c-1.975,9.911-0.296,6.87-0.723,17.015c-0.09,2.35-1.483,4.46-1.334,6.846 c-0.271,5.801,1.786,9.957-7.064,8.431c-1.039-10.465,0.585-44.362-0.436-48.622c-0.532-1.536-2.259-2.36-2.743-3.896 c-0.175-1.829-0.064-3.662-0.048-5.491c-1.09-0.308-2.169-0.622-3.232-0.951c-0.297-7.962,1.585-13.586-5.975-13.108 c-3.411,0.202-9.102-1.345-9.499,5.369c-4.789,0.058-9.605-0.255-14.368,0.133c-2.44,1.169-2.078,3.944-2.073,6.198 c-2.1,0-4.199,0.021-6.288,0.064c-0.318,14.33,0.597,14.89,0.207,21.512c-1.393-0.096-2.775-0.276-4.157-0.17 c-1.001-12.751,0.677-2.782-0.904-15.83c-3.801-2.541-8.548-0.335-12.587-2.078c-1.621,0.096-3.195,1.132-4.896,0.654 c-0.603-3.628,0.393-25.261-0.393-29.491c-7.179-1.144,3.713-2.481-20.911-2.28c-0.475,21.446,0.276,14.945-3.96,17.371 c-2.105,0.505-2.573,2.939-2.434,4.8c0.042,0.961,0.376,17.568-0.494,20.901c-7.626,2.309-7.784-3.809-12.736,8.659 c-2.796,0.84-6.134-0.59-8.505,1.446c-2.775,1.866-6.326,0.739-9.419,0.638c-0.122-2.36,0.648-5.002-0.728-7.102 c-1.052,0.292-2.084,0.617-3.126,0.914c-0.09-1.69-0.271-3.365-0.404-5.039c-11.983-3.228-20.252-0.348-23.335,0.09 c-0.011,1.138-0.032,2.28-0.059,3.429c-1.409-0.223-2.812-0.367-4.226-0.399c0.027,6.23,0.106,12.46-0.027,18.69 c-58.248-0.303-60.039,0.447-61.326-0.383c-1.043-1.689-1.392-2.159-1.015-21.666c0.032-2.174,2.339-4.072,1.185-6.246 c-0.595-1.467,0.08-3.056-0.436-4.54c-2.801,0.064-5.603,0.005-8.399,0.016c-2.355-0.074-4.508,1.169-6.857,1.095 c-3.928,0-7.856-0.085-11.779,0.032c2.942,0.53,13.339-0.013,16.595-0.229c-3.476,1.037-7.133,0.287-10.684,0.516 c-2.828,0.016-5.783,0.42-8.473-0.643c0.659-0.186,1.339-0.33,2.02-0.478c-3.402-0.415-6.831-0.276-10.243-0.266 c-0.303,0.452-0.59,0.914-0.877,1.382c0.835,4.773,0.287,9.674,0.367,14.501c-2.206-1.233-4.736-0.633-7.048-0.133 c-1.605,0.521-2.86,1.733-4.093,2.833c-1.776,1.531-1.037,4.247-2.509,5.985c-1.175,1.563-1.51,3.668-2.94,5.039 c-4.453,0.452-15.751,0.533-18.036,0.138c-1.056-5.251-1.347-4.543-7.447-6.416c-3.196-6.744-3.018-7.171-4.582-7.936 c-14.277-2.508-13.787-3.034-16.494,0.016c-0.829,2.706,0.638,5.374,0.489,8.101c-0.053,7.038,0.042,14.076-0.048,21.119 c-0.936-0.011-1.866-0.021-2.78-0.032c-0.069-1.052-0.112-2.089-0.159-3.126c-32.656-0.098-14.617,0.705-36.098-0.027 c0.085-3.12,0.26-6.262-0.239-9.355c-0.367-2.328,0.149-4.672-0.09-6.995c-0.739-2.009-1.823-3.886-2.291-5.985 c-4.306-0.048-8.617,0.154-12.912-0.064c-2.552-0.93-4.189-3.476-5.13-5.916c-7.784-1.938-9.3,0.992-11.87,1.185 c-1.722-0.659-1.494-2.87-1.85-4.353c-0.92-0.175-1.829-0.351-2.738-0.516c-1.531-4.056-1.068-8.393-1.143-12.625 c-2.174-0.058-4.359,0.096-6.517-0.128c-1.451-0.92-2.312-2.477-3.625-3.546c-3.827-1.27-7.862,0.09-11.779-0.383 c-3.248-0.415-6.496,0.037-9.738,0.133c-0.553,1.499-1.483,2.807-2.19,4.226c-0.797,4.348,0.064,8.749-0.399,13.114 c-0.47,8.913,3.247,16.091-7.538,14.102c0.222-13.355,2.367-8.08-29.379-9.51c-0.366-4.781,1.2-16.355-3.115-18.535 c-2.504-0.388-5.05-0.159-7.553-0.526c-0.191-1.419-0.383-2.828-0.569-4.242c-2.562-0.702-4.901-1.86-6.916-3.583 c-23.067-8.35-15.65,1.233-17.611,6.235c-0.904,1.685-2.971,1.653-4.603,1.967c-1.488,4.353-1.706,9.01-1.185,13.56 c0.462,2.95-1.43,5.565-1.334,8.478c0.173,36.386,0.582,36.267-1.754,36.906c-2.259,0.638-4.704,0.914-6.99,0.25 c-1.568-0.579-2.785,1.106-4.343,0.983c-11.358,0.216-15.114-1.284-15.537,3.827c-0.372,7.293,0.813,14.629-0.112,21.9 c-2.355-0.792-4.088-3.37-3.886-5.852c-0.094-36.124,1.747-103.483,1.116-108.002c-0.101-1.786-0.962-3.444-0.888-5.241 c0.011-2.052-0.42-4.061-0.76-6.07c-3.264-1.27-6.846,0.053-10.217-0.633c-2.089-1.127-2.195-3.657-2.573-5.714 c-2.132-0.633-4.348-0.526-6.538-0.521c-2.615,0.106-4.938-2.211-7.553-1.052c-0.308,1.366-0.532,2.791-1.201,4.045 c-0.957,1.005-2.36,1.377-3.561,1.993c-2.785,1.191-4.917,3.588-7.926,4.295c-3.483,1.678-3.07-1.136-3.546,8.308 c-0.889,12.872,0.988,9.755,0.25,24.181c-0.122,0.718,0.516,1.185,0.904,1.712c-1.14,1.667-1.049,2.173-0.983,11.545 c-0.043,0.75,0.484,1.35,0.781,2.004c-0.319,0.532-0.633,1.063-0.946,1.605c0.324,0.516,0.659,1.042,0.994,1.573 c-1.456,6.182-1.318,12.577-1.276,18.881c0.59,0.271,1.185,0.547,1.786,0.829c-0.563,0.521-1.329,0.893-1.664,1.611 c0.181,0.633,0.548,1.196,0.877,1.775c-2.228,3.415-0.808,14.289-1.185,16.292c-0.532,3.646-0.159,7.325-0.138,10.993 c-5.273,0.351-10.562-0.074-15.835,0.202c-0.149,0.149-0.447,0.452-0.595,0.601c-0.287,2.047,0.441,4.385-1.122,6.065 c-3.244-1.283-2.688-2.466-8.68-5.029c-0.058-4.816,0.101-9.632-0.053-14.442c-0.447-3.684-0.447-7.41-0.197-11.104 c0.058-0.343,0.661-39.2,0.154-45.826c-0.159-1.908-1.664-3.381-1.876-5.273c-0.447-3.014,0.191-6.033,0.133-9.052 c0-2.062-0.276-4.109-0.335-6.166c-8.669-3.16-24.13,0.542-28.524-2.461c-0.122-1.568-0.181-3.147-0.011-4.71 c0.377-2.562-0.351-5.103-0.144-7.67c-9.359-1.132-6.565-3.656-17.829-1.728c0.053,1.355,0.165,2.706,0.42,4.045 c-1.901,1.694-0.11,1.583-11.514,1.467c-0.223,2.557-0.128,5.124-0.165,7.692c-3.221,0.335-6.512-0.26-9.69,0.361 c-1.366,1.079-1.079,3.269-1.467,4.848c-1.015,0.149-2.025,0.298-3.03,0.468c-0.213,1.138,0.457,1.935,1.393,2.482 c-0.473,0.5-1.026,0.941-1.382,1.547c-0.011,2.722,0.51,5.448,0.128,8.17c-1.551,2.104-4.822,1.125-12.848,1.414 c-0.058,2.419-0.042,4.837-0.069,7.256c-1.042,0.133-2.084,0.287-3.115,0.473c-0.016,0.356-0.058,1.068-0.074,1.419 c1.095,0.17,2.195,0.361,3.296,0.547c-0.058,0.994-0.09,1.993-0.106,2.998c-2.69,0.037-5.379-0.032-8.064,0.085 c1.085,19.978-0.42,15.399-1.547,18.53c0.551,5.804-0.938,27.383-0.229,36.018c-1.27,0.34-2.594,0.415-3.795-0.191 c-0.223-1.419-0.962-2.594-2.201-3.317c0.689-31.603-0.455-28.876,0.638-30.496c-0.712-1.706-0.287-3.556-0.218-5.332 c0.17-5.39-0.473-10.78,0.223-16.159c-4.46-1.249-9.111-1.297-13.704-1.313c-0.048-1.398-0.074-2.796-0.096-4.189 c-25.356,0-33.958-0.643-29.438,1.786c-2.33,3.644,0.343,2.65-1.116,11.221c0.537,0.59,1.079,1.18,1.616,1.786 c-0.755,0.08-2.132-0.112-2.009,1.042c0.537,5.938-0.342,30.405,0.292,36.114c0.372,2.764-0.723,5.422-0.845,8.165 c0,0-0.08,27.816-0.08,27.816c1.409,0.016,2.823,0.048,4.226,0.229c-3.136,1.334-6.528,0.101-9.797,0.229 c-0.276-0.601-0.547-1.201-0.819-1.791c-9.813,4.185-10.306,0.431-14.522,0.664c-1.308-0.096-2.753,0.356-3.934-0.378 c-4.332-2.927-5.089,2.638-14.74,0.245c0,0,0.348-10.319,0.415-23.144c-10.81-2.053-22.316-0.813-28.38-1.52 c-1.722-9.599-0.096-39.409-0.112-39.5c0.407-10.847-0.949-13.658,0.505-16.521c-3.051,0.096-6.028-0.585-9.01-1.095 c-3.328-0.048-6.676,0.101-9.924-0.781c-3.253,0.159-6.517,0.032-9.77,0.186c-5.204,0.978-10.52,0.409-15.782,0.542 c1.114,3.933,0.302,24.765,0.26,25.297c-0.235,2.474,1.956,7.417-2.589,8.245c-3.423-0.181-6.862,0.064-10.27-0.388 c-2.695-0.34-5.369,0.207-8.058,0.234c-0.588-7.152,1.334-42.817,1.223-46.777c0.128-1.164-0.936-1.977-2.004-2.041 c-7.192-1.27-14.575,0.303-21.751-1.116c-4.704,0.649-9.467-0.005-14.171,0.585c0,0.002-1.977,103.93-1.977,103.93 c-0.038,0.009-0.076,0.02-0.114,0.029v1H28.042c-0.057,64.569-0.048,129.137-0.008,193.706h2559.944 C2587.996,758.422,2588.029,544.8,2587.963,504.406z M101.098,565.291c-1.68,0.622-3.365-0.255-5.05-0.346 c-5.156-0.399-10.328-0.266-15.49-0.181c-0.658-2.398,0.253-31.424,0.468-32.314c0.799-1.133,1.466-0.334,17.175-0.569 c0.962-0.064,1.903,0.144,2.796,0.484C101.576,540.833,100.742,550.509,101.098,565.291z M2354.225,539.276 c2.737,0.09,5.544-0.393,8.26-0.027l0.367,0.468C2359.971,539.494,2357.074,539.462,2354.225,539.276z"/> </svg>