<?xml version="1.0" encoding="UTF-8"?> <svg xmlns="http://www.w3.org/2000/svg" width="65" height="67" viewBox="0 0 65 67" fill="none"><g clip-path="url(#clip0_249_795)"><path d="M64.9991 24.4451C64.9632 19.1276 63.6192 13.901 61.0862 9.22754L34.7676 24.4451H64.9991Z" fill="#05A65C"></path><path d="M31.9363 67V27.2908L12.0273 61.7658C18.1319 65.1261 24.9708 66.9241 31.9363 67Z" fill="#05A65C"></path><path d="M34.7676 25.658L56.7168 38.347C58.88 34.4599 60.0723 30.1064 60.1918 25.658H34.7676Z" fill="#05A65C"></path><path d="M33.1191 61.1127C39.0253 61.0023 44.8147 59.4455 49.9817 56.5782L33.1191 27.3281V61.1127Z" fill="#05A65C"></path><path d="M2.33789 43.1987C5.34902 48.1135 9.50473 52.2241 14.4491 55.1786L30.8738 26.6936L2.33789 43.1987Z" fill="#05A65C"></path><path d="M0.0371094 25.658C0.171255 30.9567 1.60459 36.141 4.21082 40.7542L30.2965 25.658H0.0371094Z" fill="#05A65C"></path><path d="M49.1148 52.6315C53.608 49.927 57.3826 46.1756 60.1174 41.6965L34.1621 26.6936L49.1148 52.6315Z" fill="#05A65C"></path><path d="M57.4436 9.93664C55.027 5.88265 51.6678 2.47365 47.6522 0L34.1621 23.4001L57.4436 9.93664Z" fill="#05A65C"></path><path d="M42.892 5.87808C39.8926 4.23012 36.5395 3.33378 33.1191 3.26562V22.859L42.892 5.87808Z" fill="#05A65C"></path><path d="M51.714 24.4452C51.6719 21.4643 50.9349 18.5345 49.5619 15.8894L34.7676 24.4452H51.714Z" fill="#ABE0FA"></path><path d="M44.0933 17.6622C43.0418 15.9443 41.6227 14.4816 39.9382 13.3796L34.1621 23.4003L44.0933 17.6622Z" fill="#ABE0FA"></path><path d="M37.5817 15.0591C36.199 14.3384 34.6762 13.9277 33.1191 13.8555V22.8031L37.5817 15.0591Z" fill="#ABE0FA"></path><path d="M33.1191 49.7485C37.0301 49.6439 40.8609 48.6144 44.2987 46.7442L33.1191 27.2908V49.7485Z" fill="#ABE0FA"></path><path d="M11.2715 38.0298C13.3689 41.366 16.2224 44.1598 19.6003 46.1844L30.873 26.6936L11.2715 38.0298Z" fill="#ABE0FA"></path><path d="M9.53906 25.658C9.66019 29.2806 10.644 32.8218 12.4085 35.9865L30.2772 25.658H9.53906Z" fill="#ABE0FA"></path><path d="M34.7676 25.658L52.8506 36.1078C54.6228 32.9008 55.6154 29.3208 55.748 25.658H34.7676Z" fill="#ABE0FA"></path><path d="M44.569 44.7475C47.6708 42.8416 50.2864 40.238 52.2084 37.1434L34.1348 26.6936L44.569 44.7475Z" fill="#ABE0FA"></path><path d="M21.6777 45.0648C24.8361 46.7504 28.3475 47.6647 31.9257 47.7332V27.2908L21.6777 45.0648Z" fill="#ABE0FA"></path><path d="M34.7676 24.4451H46.6179C46.5854 22.3608 46.0855 20.3106 45.1553 18.4458L34.7676 24.4451Z" fill="#414042"></path><path d="M33.1191 43.3854C35.934 43.29 38.6901 42.5529 41.1778 41.2301L33.1191 27.2349V43.3854Z" fill="#414042"></path><path d="M21.7715 25.658C21.8622 27.1379 22.2654 28.5816 22.9547 29.8939L30.2773 25.658H21.7715Z" fill="#414042"></path><path d="M22.6934 31.424C23.6075 32.7894 24.8017 33.944 26.1963 34.8109L30.8545 26.6936L22.6934 31.424Z" fill="#414042"></path><path d="M34.7676 25.658L48.7421 33.7565C50.1141 31.2691 50.8922 28.4971 51.0153 25.658H34.7676Z" fill="#414042"></path><path d="M43.3014 42.5456C46.0283 40.886 48.3364 38.6191 50.0464 35.9211L34.1621 26.7402L43.3014 42.5456Z" fill="#414042"></path><path d="M24.9297 39.4293C27.0951 40.5427 29.4836 41.1518 31.9169 41.2114V27.2908L24.9297 39.4293Z" fill="#414042"></path><path d="M3.65117 14.3032L4.17288 14.8257C3.95175 15.0733 3.68014 15.2706 3.37639 15.4042C3.07264 15.5378 2.74381 15.6046 2.4121 15.6001C2.02051 15.6018 1.63462 15.5062 1.28901 15.3219C0.943398 15.1375 0.648874 14.8701 0.431846 14.5437C0.214817 14.2172 0.0820671 13.842 0.0454981 13.4515C0.00892896 13.0611 0.0696852 12.6676 0.222317 12.3065C0.374949 11.9453 0.614686 11.6278 0.920034 11.3823C1.22538 11.1367 1.5868 10.9709 1.97187 10.8997C2.35695 10.8285 2.75365 10.8541 3.12641 10.9743C3.49917 11.0944 3.83633 11.3053 4.10767 11.5881L3.57664 12.1012C3.42839 11.9405 3.24819 11.8126 3.04762 11.7259C2.84705 11.6391 2.63057 11.5953 2.4121 11.5974C1.99978 11.6286 1.61446 11.8147 1.3333 12.1183C1.05215 12.4219 0.89593 12.8208 0.89593 13.2349C0.89593 13.649 1.05215 14.0478 1.3333 14.3514C1.61446 14.6551 1.99978 14.8411 2.4121 14.8723C2.6473 14.872 2.87969 14.821 3.09349 14.7228C3.30728 14.6246 3.49748 14.4815 3.65117 14.3032Z" fill="#414042"></path><path d="M7.48946 10.9443H8.29066L10.0701 15.5254H9.27819L8.83101 14.4618H6.89321L6.47398 15.5534H5.69141L7.48946 10.9443ZM7.20065 13.7434H8.57947L7.89006 11.9613L7.20065 13.7434Z" fill="#414042"></path><path d="M12.5479 10.9443L14.8304 14.0979V10.9443H15.613V15.5255H14.9142L12.6224 12.3719V15.5255H11.8398V10.9443H12.5479Z" fill="#414042"></path><path d="M19.2465 13.6128C18.5757 13.3795 17.8211 13.0157 17.8211 12.1666C17.8329 11.9831 17.8809 11.8037 17.9625 11.6389C18.044 11.4741 18.1573 11.3271 18.296 11.2064C18.4346 11.0858 18.5958 10.9939 18.7702 10.9361C18.9445 10.8783 19.1286 10.8558 19.3117 10.8697C19.5982 10.8743 19.8802 10.9419 20.1378 11.0676C20.3954 11.1934 20.6222 11.3743 20.8023 11.5975L20.262 12.1293C20.1502 11.9843 20.0098 11.8639 19.8495 11.7756C19.6892 11.6873 19.5125 11.633 19.3303 11.6161C19.165 11.5977 18.9991 11.645 18.8684 11.748C18.7376 11.851 18.6526 12.0014 18.6316 12.1666C18.6316 12.5585 18.995 12.6891 19.6191 12.9224C20.2433 13.1556 20.9048 13.5008 20.9048 14.3312C20.9048 15.1616 20.1688 15.6001 19.3117 15.6001C18.9766 15.5975 18.6474 15.5108 18.3545 15.3477C18.0615 15.1847 17.814 14.9507 17.6348 14.6671L18.2217 14.1726C18.3357 14.3652 18.4942 14.5275 18.6839 14.646C18.8736 14.7646 19.0889 14.8358 19.3117 14.8537C19.703 14.8537 20.1036 14.7044 20.1036 14.3312C20.1036 13.958 19.8148 13.7994 19.2651 13.6128" fill="#414042"></path><path d="M24.352 13.6128C23.6812 13.3795 22.9266 13.0157 22.9266 12.1666C22.9371 11.9826 22.9843 11.8026 23.0655 11.6372C23.1466 11.4718 23.2599 11.3243 23.3988 11.2034C23.5378 11.0826 23.6994 10.9908 23.8743 10.9335C24.0492 10.8762 24.2338 10.8545 24.4172 10.8697C24.7035 10.8756 24.9851 10.9437 25.2424 11.0693C25.4998 11.195 25.7269 11.3752 25.9078 11.5975L25.3674 12.1293C25.2557 11.9843 25.1152 11.8639 24.955 11.7756C24.7947 11.6873 24.618 11.633 24.4358 11.6161C24.2705 11.5977 24.1046 11.645 23.9738 11.748C23.8431 11.851 23.7581 12.0014 23.7371 12.1666C23.7371 12.5585 24.1004 12.6891 24.7246 12.9224C25.3488 13.1556 26.001 13.5008 26.001 14.3312C26.001 15.1616 25.2743 15.6001 24.4079 15.6001C24.0743 15.596 23.7471 15.5085 23.4558 15.3455C23.1646 15.1826 22.9186 14.9494 22.7402 14.6671L23.3272 14.1726C23.4397 14.3645 23.5966 14.5265 23.7847 14.645C23.9727 14.7635 24.1864 14.8351 24.4079 14.8537C24.7991 14.8537 25.2091 14.7044 25.2091 14.3312C25.2091 13.958 24.9109 13.7994 24.3706 13.6128" fill="#414042"></path><path d="M28.8705 10.9443H28.0879V15.5255H28.8705V10.9443Z" fill="#414042"></path><path d="M1.22984 18.4739H0.447266V23.055H1.22984V18.4739Z" fill="#414042"></path><path d="M4.25687 18.4739L6.53937 21.6275V18.4739H7.32194V23.055H6.6139L4.3314 19.9107V23.055H3.54883V18.4739H4.25687Z" fill="#414042"></path><path d="M12.9022 21.842L13.4239 22.3551C13.1072 22.7101 12.6912 22.9613 12.2299 23.076C11.7687 23.1908 11.2836 23.1638 10.8379 22.9986C10.3922 22.8334 10.0065 22.5376 9.73101 22.1497C9.45554 21.7619 9.30307 21.2999 9.29345 20.824C9.28384 20.3482 9.41753 19.8804 9.67711 19.4817C9.9367 19.083 10.3101 18.7718 10.7488 18.5887C11.1875 18.4056 11.6711 18.359 12.1366 18.455C12.6021 18.5509 13.0279 18.7851 13.3587 19.1269L12.8369 19.6494C12.6876 19.49 12.5072 19.3631 12.3069 19.2764C12.1066 19.1897 11.8906 19.1452 11.6724 19.1456C11.24 19.1456 10.8253 19.3176 10.5196 19.6238C10.2138 19.93 10.042 20.3453 10.042 20.7783C10.042 21.2114 10.2138 21.6267 10.5196 21.9329C10.8253 22.2391 11.24 22.4111 11.6724 22.4111C11.9055 22.4119 12.1361 22.3622 12.3483 22.2656C12.5605 22.169 12.7494 22.0277 12.9022 21.8513" fill="#414042"></path><path d="M16.7228 18.4739H17.5147L19.2941 23.055H18.5022L18.083 21.9727H16.1545L15.7352 23.055H14.9434L16.7228 18.4739ZM16.434 21.2729H17.8035L17.1234 19.4815L16.434 21.2729Z" fill="#414042"></path><path d="M22.4984 21.1517C21.8277 20.9091 21.0637 20.5452 21.0637 19.6962C21.0767 19.5122 21.1259 19.3326 21.2084 19.1678C21.2909 19.0029 21.4051 18.856 21.5445 18.7354C21.6839 18.6149 21.8457 18.5232 22.0206 18.4655C22.1955 18.4078 22.38 18.3853 22.5637 18.3993C22.8499 18.4051 23.1315 18.4732 23.3889 18.5989C23.6463 18.7246 23.8733 18.9048 24.0543 19.127L23.5139 19.6589C23.4021 19.5139 23.2617 19.3935 23.1014 19.3052C22.9412 19.2169 22.7644 19.1626 22.5823 19.1457C22.417 19.1272 22.2511 19.1746 22.1203 19.2776C21.9896 19.3806 21.9046 19.5309 21.8836 19.6962C21.8836 20.0974 22.2376 20.2187 22.8711 20.4519C23.5046 20.6852 24.1474 21.0304 24.1474 21.8608C24.1474 22.6912 23.4208 23.139 22.5543 23.139C22.2204 23.1366 21.8926 23.0498 21.6011 22.8867C21.3095 22.7236 21.0639 22.4895 20.8867 22.206L21.4736 21.7115C21.5857 21.9046 21.7423 22.068 21.9303 22.1881C22.1183 22.3082 22.3323 22.3816 22.5543 22.4019C22.9456 22.4019 23.3555 22.2433 23.3555 21.8701C23.3555 21.4969 23.0574 21.3476 22.5171 21.161" fill="#414042"></path><path d="M27.603 21.1517C26.9229 20.9091 26.1683 20.5452 26.1683 19.6962C26.1813 19.5122 26.2304 19.3326 26.3129 19.1678C26.3954 19.0029 26.5097 18.856 26.649 18.7354C26.7884 18.6149 26.9502 18.5232 27.1251 18.4655C27.3 18.4078 27.4846 18.3853 27.6682 18.3993C27.9533 18.4046 28.2337 18.4725 28.4896 18.5983C28.7456 18.724 28.9709 18.9045 29.1495 19.127L28.6092 19.6589C28.4986 19.5126 28.3585 19.3913 28.1979 19.3029C28.0374 19.2145 27.8601 19.1609 27.6775 19.1457C27.5955 19.1353 27.5122 19.1413 27.4325 19.1634C27.3527 19.1856 27.2782 19.2233 27.2132 19.2746C27.1482 19.3258 27.094 19.3894 27.0537 19.4618C27.0135 19.5342 26.988 19.6139 26.9788 19.6962C26.9788 20.0974 27.3328 20.2187 27.957 20.4519C28.5812 20.6852 29.2427 21.0304 29.2427 21.8608C29.2427 22.6912 28.5067 23.139 27.6496 23.139C27.3145 23.1364 26.9853 23.0496 26.6923 22.8866C26.3994 22.7236 26.1519 22.4896 25.9727 22.206L26.5596 21.7115C26.6725 21.9058 26.8306 22.07 27.0203 22.1902C27.21 22.3104 27.4259 22.383 27.6496 22.4019C28.0409 22.4019 28.4415 22.2433 28.4415 21.8701C28.4415 21.4969 28.1527 21.3476 27.6123 21.161" fill="#414042"></path></g><defs><clipPath id="clip0_249_795"><rect width="65" height="67" fill="white"></rect></clipPath></defs></svg> 