<?xml version="1.0" encoding="UTF-8" standalone="no"?>
<!-- Created with Inkscape (http://www.inkscape.org/) -->

<svg
   width="253.13551mm"
   height="48.969719mm"
   viewBox="0 0 253.13551 48.969719"
   version="1.1"
   id="svg5"
   inkscape:version="1.2.1 (9c6d41e410, 2022-07-14)"
   sodipodi:docname="skyline_blue.svg"
   xmlns:inkscape="http://www.inkscape.org/namespaces/inkscape"
   xmlns:sodipodi="http://sodipodi.sourceforge.net/DTD/sodipodi-0.dtd"
   xmlns="http://www.w3.org/2000/svg"
   xmlns:svg="http://www.w3.org/2000/svg">
  <sodipodi:namedview
     id="namedview7"
     pagecolor="#ffffff"
     bordercolor="#000000"
     borderopacity="0.25"
     inkscape:showpageshadow="2"
     inkscape:pageopacity="0.0"
     inkscape:pagecheckerboard="0"
     inkscape:deskcolor="#d1d1d1"
     inkscape:document-units="mm"
     showgrid="false"
     inkscape:zoom="0.78127806"
     inkscape:cx="463.98334"
     inkscape:cy="275.19012"
     inkscape:window-width="1846"
     inkscape:window-height="1057"
     inkscape:window-x="-8"
     inkscape:window-y="-8"
     inkscape:window-maximized="1"
     inkscape:current-layer="layer1" />
  <defs
     id="defs2">
    <clipPath
       id="clip1">
      <rect
         x="123"
         y="261"
         width="978"
         height="198"
         id="rect124" />
    </clipPath>
    <clipPath
       id="clip2">
      <rect
         x="123"
         y="261"
         width="978"
         height="198"
         id="rect127" />
    </clipPath>
    <clipPath
       id="clip3">
      <rect
         x="123"
         y="261"
         width="978"
         height="198"
         id="rect130" />
    </clipPath>
  </defs>
  <g
     inkscape:label="Layer 1"
     inkscape:groupmode="layer"
     id="layer1"
     transform="translate(17.521006,-76.095528)">
    <g
       clip-path="url(#clip1)"
       id="g143"
       transform="matrix(0.26458333,0,0,0.26458333,-52.878826,5.3304414)">
      <g
         clip-path="url(#clip2)"
         id="g141">
        <g
           clip-path="url(#clip3)"
           id="g139">
          <path
             d="m 643.513,125.424 c -0.077,0.016 -0.231,0.049 -0.311,0.065 -0.057,0.145 -0.106,0.292 -0.149,0.44 -0.082,0.027 -0.246,0.08 -0.328,0.107 -0.152,-0.217 -0.209,-0.606 -0.535,-0.591 -0.708,-0.02 -1.402,0.251 -2.113,0.116 0.109,-0.993 0.286,-2.021 -0.778,-1.969 -1.085,0.004 -2.174,-0.036 -3.248,0.099 -0.559,0.09 -1.116,-0.17 -1.658,0.016 -0.692,0.211 -1.413,0.139 -2.117,0.154 -0.492,-0.022 -0.877,0.404 -1.375,0.322 -0.343,-0.059 -0.586,0.221 -0.86,0.365 -0.005,0.293 -0.027,0.589 0.022,0.884 0.125,0.263 0.316,0.502 0.376,0.799 -0.689,0.013 -1.38,-0.043 -2.047,0.142 0.04,0.302 0.15,0.588 0.286,0.863 -0.268,0.465 -0.492,0.36 0.177,0.93 -0.271,0.029 -0.537,0.037 -0.796,0.011 0.296,0.253 0.577,0.529 0.913,0.742 -0.184,0.123 -0.366,0.239 -0.54,0.36 0.167,0.174 0.346,0.35 0.517,0.53 -0.134,0.072 -0.258,0.148 -0.375,0.226 0.288,0.38 -0.06,0.844 0.194,1.236 -0.092,0.125 -0.184,0.249 -0.266,0.375 0.144,0.148 0.293,0.297 0.45,0.447 -0.127,0.127 -0.259,0.252 -0.373,0.381 0.129,0.144 0.266,0.284 0.413,0.428 -0.14,0.097 -0.291,0.19 -0.413,0.288 0.097,0.221 0.293,0.358 0.517,0.459 -0.186,0.111 -0.368,0.226 -0.539,0.342 0.104,0.189 0.213,0.381 0.32,0.579 -0.189,-0.03 -0.363,-0.062 -0.534,-0.095 0.139,0.198 0.268,0.404 0.41,0.612 0.378,0.072 0.758,0.161 1.136,0.265 -0.049,0.119 -0.089,0.241 -0.121,0.365 -0.252,-0.21 -0.562,-0.271 -0.873,-0.24 -0.045,0.167 -0.085,0.336 -0.115,0.507 0,0 -7.536,-0.09 -9.031,0.021 0.172,-0.404 0,-0.772 -0.311,-1.04 -0.117,-0.002 -3.633,-0.017 -3.797,0.018 0.065,0.327 0.145,0.651 0.219,0.979 -0.266,-0.208 -0.452,-0.68 -0.85,-0.56 -0.587,0.139 -1.171,-0.118 -1.761,-0.045 -3.026,0.287 -3.309,-0.12 -4.028,0.606 0,0 -3.039,0.022 -4.304,-0.033 -0.674,0.05 -1.343,0.264 -2.019,0.137 -0.605,-0.101 -1.234,0.04 -1.818,-0.169 -0.574,-0.191 -0.487,0.08 -3.685,0.122 -4.558,-0.006 -3.325,0.117 -4.536,-0.423 0.02,-0.252 0.033,-0.505 0.053,-0.755 -0.45,-0.23 -0.958,-0.099 -1.43,-0.149 -0.207,-0.251 -0.142,-0.603 -0.182,-0.899 -0.81,-0.362 -1.663,0.049 -2.496,-0.012 -0.599,0.054 -1.164,-0.132 -1.733,-0.251 -0.535,0.061 -1.045,0.25 -1.582,0.28 -0.44,0 -0.741,0.38 -1.158,0.457 0.004,0.133 0.166,5.886 0.119,6.046 0.079,0.13 0.234,0.25 0.196,0.427 -0.283,2.518 -0.273,1.872 -1.939,1.527 0.171,0.086 0.345,0.166 0.529,0.25 -0.211,0.339 -0.514,0.987 -0.982,0.587 -0.159,0.061 -0.321,0.121 -0.467,0.186 -0.167,-0.09 -0.329,-0.176 -0.483,-0.262 0.232,-1.24 0.015,-1.383 -0.039,-5.528 -0.259,-0.049 -0.503,-0.172 -0.756,-0.122 -0.796,0.159 -1.612,0.085 -2.412,0.095 -0.545,0.039 -0.895,-0.424 -1.249,-0.749 -0.502,-0.073 -1.178,-0.208 -1.457,0.338 -0.577,0.033 -1.158,-0.016 -1.73,0.035 -0.152,0.126 -0.167,0.334 -0.227,0.509 -0.693,0.004 -1.385,-0.02 -2.073,0.027 0.084,0.404 0.276,2.965 0.149,3.561 -2.059,-0.733 -0.505,0.182 -2.798,0.254 -0.228,-0.022 -0.517,0.055 -0.639,-0.182 -0.171,-1.572 -0.514,-19.545 -0.681,-20.316 -4.63,-0.058 -2.188,-0.122 -3.973,-0.346 -0.724,0.14 -1.448,0.308 -2.184,0.329 -0.191,-0.082 -0.179,-0.333 -0.253,-0.489 -0.344,-0.043 -0.684,-0.131 -1.025,-0.062 -0.855,0.119 -5.085,0.072 -5.217,0.083 0.005,0.169 0.013,0.337 0.03,0.51 -0.201,-0.033 -0.408,-0.062 -0.564,-0.192 -0.532,-0.454 -1.186,0.085 -1.758,0.15 -0.132,-10e-4 -2.81,0.611 -4.083,0.556 -0.49,1.117 0.666,12.188 0.515,18.87 -0.286,0.057 -0.562,0.117 -0.841,0.156 -1.009,-2.291 -0.52,-20.424 -1.313,-22.154 -1.4,-0.077 -2.797,-0.048 -4.195,-0.057 -0.497,-0.044 -0.895,0.351 -1.392,0.276 0.007,-0.233 0.015,-0.465 -0.005,-0.695 0.418,-0.125 0.868,-0.09 1.283,-0.245 -0.306,-1.978 0.085,-2.429 -0.463,-3.035 -0.465,0.106 -0.942,0.152 -1.417,0.129 -0.002,-0.146 0,-0.29 0.01,-0.433 0.132,-0.005 0.269,-0.009 0.41,-0.011 -0.532,-0.632 -0.46,-0.261 -0.402,-1.359 -0.257,-0.241 -0.388,-0.557 -0.508,-0.875 -0.288,-0.276 -0.552,0.09 -0.741,0.279 -0.552,0.09 -0.977,-0.442 -1.522,-0.393 -0.353,-0.058 -0.626,0.192 -0.932,0.298 -0.266,-0.073 -0.48,-0.339 -0.768,-0.269 -0.726,0.134 -1.44,0.427 -2.191,0.34 -0.51,-0.074 -0.848,0.422 -1.268,0.623 -0.013,0.655 -0.045,1.311 -0.077,1.966 -0.547,0.055 -1.074,0.22 -1.614,0.291 -0.107,0.732 0.037,1.467 0.032,2.202 0.028,0.21 -0.059,0.569 0.247,0.607 0.348,0.051 0.708,0.058 1.051,0.175 -0.069,0.088 -0.131,0.178 -0.189,0.268 0.087,0.084 0.182,0.17 0.281,0.259 -0.139,0.135 -0.253,0.289 -0.41,0.393 -0.296,-0.016 -0.557,-0.17 -0.84,-0.211 -0.557,-0.101 -1.137,-0.099 -1.664,-0.311 -0.259,-0.147 -0.53,0.035 -0.783,0.063 -0.316,0.012 -0.624,-0.018 -0.93,-0.008 0.303,0.074 0.723,-0.054 0.942,0.237 -1.405,-0.125 -2.797,0.165 -4.197,0.182 -0.49,-0.009 -0.948,0.142 -1.385,0.335 0.04,-0.237 0.162,-0.44 0.348,-0.594 -0.46,0.188 -0.962,0.227 -1.44,0.324 -0.017,0.122 -0.025,0.244 -0.027,0.367 -0.241,-0.059 -0.48,-0.126 -0.706,-0.194 -0.413,0.563 -1.142,0.399 -1.716,0.628 0.02,0.44 0.162,0.895 0.03,1.33 -0.244,0.236 -0.567,0.366 -0.858,0.52 0.007,0.427 0.288,0.957 -0.112,1.29 -0.35,0.285 -0.806,0.454 -1.261,0.409 -0.005,-0.515 0.065,-1.084 -0.31,-1.495 0.079,-0.169 0.166,-0.336 0.258,-0.503 -0.181,-0.174 -0.368,-0.338 -0.552,-0.497 0.07,-0.112 0.147,-0.222 0.229,-0.33 -0.097,-0.156 -0.189,-0.311 -0.274,-0.465 0.301,-0.455 -0.044,-0.986 0.177,-1.467 -0.512,-0.553 -1.278,-0.364 -1.937,-0.294 -0.008,-0.255 -0.005,-0.509 0.007,-0.76 -0.674,-0.582 -1.623,-0.275 -2.384,-0.072 -0.085,-0.19 -0.159,-0.381 -0.232,-0.569 -0.589,0.031 -1.181,0.096 -1.762,-0.028 -0.376,-16.038 -0.689,-15.095 -0.267,-15.838 -0.671,-0.236 -7.489,-1.6913 -8.198,-1.6088 -1.022,2.1628 -1.743,7.2238 -2.034,7.8278 -1.584,17.148 1.686,11.829 -3.391,13.468 0,0.513 -0.005,1.027 -0.015,1.542 -0.468,0.105 -0.943,0.175 -1.385,0.348 0.022,0.199 0.189,9.577 0.194,9.61 -0.361,-0.007 -0.714,-0.043 -1.052,-0.144 0.082,-0.168 0.179,-0.331 0.276,-0.494 -0.132,-0.141 -0.266,-0.273 -0.371,-0.429 0.04,-0.183 0.244,-0.266 0.368,-0.395 -0.149,-0.175 -0.293,-0.349 -0.43,-0.526 0.092,-0.144 0.192,-0.286 0.299,-0.426 -0.145,-0.173 -0.286,-0.347 -0.418,-0.521 0.132,-0.127 0.273,-0.248 0.418,-0.369 -0.15,-0.171 -0.289,-0.344 -0.423,-0.519 0.097,-0.142 0.204,-0.28 0.313,-0.419 -0.109,-0.142 -0.219,-0.28 -0.316,-0.418 0.082,-0.173 0.179,-0.341 0.281,-0.507 -0.094,-0.135 -0.194,-0.263 -0.248,-0.41 0.02,-0.21 0.184,-0.361 0.291,-0.531 -0.157,-0.142 -0.314,-0.281 -0.46,-0.419 0.134,-0.138 0.276,-0.271 0.427,-0.402 -0.137,-0.168 -0.273,-0.332 -0.403,-0.496 0.112,-0.157 0.234,-0.31 0.353,-0.466 -0.129,-0.152 -0.258,-0.304 -0.377,-0.455 0.116,-0.15 0.246,-0.294 0.377,-0.437 -0.134,-0.151 -0.268,-0.299 -0.392,-0.447 0.107,-0.146 0.221,-0.289 0.338,-0.431 -0.149,-0.176 -0.296,-0.351 -0.438,-0.525 0.139,-0.136 0.286,-0.269 0.435,-0.403 -0.156,-0.135 -0.308,-0.267 -0.452,-0.401 0.087,-0.181 0.184,-0.356 0.288,-0.531 -0.059,-0.168 -0.112,-0.334 -0.156,-0.5 0.064,-0.126 0.139,-0.249 0.213,-0.373 -0.116,-0.175 -0.226,-0.352 -0.323,-0.532 0.115,-0.127 0.241,-0.25 0.366,-0.377 -0.137,-0.159 -0.271,-0.319 -0.393,-0.479 0.161,-0.071 0.333,-0.137 0.512,-0.201 -0.137,-0.303 -0.361,-0.545 -0.627,-0.731 0.142,-0.125 0.291,-0.244 0.446,-0.361 -0.152,-0.18 -0.304,-0.356 -0.448,-0.533 0.137,-0.127 0.281,-0.25 0.43,-0.373 -0.423,-0.843 -0.254,0.023 -0.032,-1.484 -0.142,0.038 -0.281,0.078 -0.413,0.119 0.298,-0.345 0.554,-0.776 1.054,-0.835 0.035,-0.084 0.077,-0.165 0.127,-0.246 -0.445,-0.061 -0.736,-0.389 -0.98,-0.728 0.085,-0.135 0.209,-0.256 0.257,-0.417 -0.075,-0.217 -0.331,-0.316 -0.388,-0.531 0.107,-0.148 0.241,-0.271 0.378,-0.399 -0.13,-0.135 -0.267,-0.259 -0.361,-0.411 -0.02,-0.241 0.281,-0.278 0.428,-0.414 -0.177,-0.239 -0.411,-0.419 -0.629,-0.604 0.181,-0.13 0.373,-0.256 0.562,-0.39 -0.16,-0.145 -0.316,-0.289 -0.465,-0.435 0.121,-0.168 0.31,-0.306 0.35,-0.524 -0.104,-0.183 -0.268,-0.314 -0.405,-0.459 0.119,-0.179 0.256,-0.343 0.41,-0.497 -0.144,-0.183 -0.296,-0.355 -0.447,-0.52 0.124,-0.164 0.253,-0.323 0.387,-0.483 -0.129,-0.147 -0.285,-0.273 -0.36,-0.448 -0.027,-0.248 0.147,-0.455 0.236,-0.675 -0.336,-0.071 -0.676,-0.112 -1.009,-0.145 0.064,-0.698 -0.177,-1.474 0.231,-2.099 -1.557,-0.349 -1.122,-0.625 -2.171,-0.461 -0.318,0.373 -0.83,0.218 -1.253,0.24 -0.115,-0.371 -0.132,-0.761 -0.214,-1.135 -0.4,-0.315 -0.927,0.005 -1.368,0.042 -0.415,-0.117 -0.716,-0.455 -1.104,-0.62 -0.263,-0.013 -0.517,0.064 -0.768,0.115 -0.343,-10e-4 -0.363,0.44 -0.646,0.543 -0.132,0.06 -1.689,1.262 -3.198,0.813 -1.634,-0.031 -3.312,-0.168 -4.881,0.376 0.002,0.39 0.005,0.781 0.007,1.172 0.246,0.021 0.532,-0.041 0.749,0.135 -1.587,0.143 -1.895,-0.53 -2.445,0.436 0.075,0.732 0.157,1.566 -0.318,2.19 -0.152,0.197 -0.234,0.492 -0.505,0.545 -0.293,0.094 -0.611,0.236 -0.728,0.542 0.052,0.795 0.112,1.603 0.002,2.397 -0.156,0.22 -0.363,0.401 -0.515,0.62 0.09,0.142 0.192,0.285 0.299,0.427 -0.321,0.476 -0.281,1.051 -0.281,1.6 0.199,0.082 0.4,0.165 0.607,0.259 -0.177,0.108 -0.351,0.214 -0.518,0.325 -0.015,0.543 -0.072,1.092 0.045,1.631 -0.947,0.063 -1.905,0.118 -2.849,0.021 0.037,-0.733 0.106,-3.512 -0.433,-4.196 -0.226,-0.819 -0.047,-1.687 -0.137,-2.522 -0.164,-0.339 -0.559,-0.427 -0.89,-0.472 -0.132,-0.343 -0.107,-0.71 -0.057,-1.064 0.087,-0.599 -0.092,-1.189 -0.112,-1.785 -0.296,-0.079 -0.594,-0.145 -0.89,-0.194 -0.02,-0.949 0.039,-1.902 -0.172,-2.835 -0.271,-0.078 -0.54,-0.153 -0.803,-0.226 0.005,-0.194 0.015,-0.389 0.032,-0.582 -0.48,-0.179 -0.977,-0.386 -1.497,-0.321 -1.024,0.1 -3.135,-0.111 -3.986,0.496 -0.131,0.228 -0.216,0.482 -0.365,0.7 -0.5,0.336 -1.03,-0.112 -1.524,-0.223 0.029,-0.184 0.067,-0.366 0.109,-0.547 -0.704,-0.301 -1.507,-0.168 -2.25,-0.26 -0.443,-0.084 -0.866,0.097 -1.293,0.117 -0.485,-0.333 -1.07,-0.484 -1.52,-0.863 0.062,-0.065 0.184,-0.196 0.246,-0.261 -0.139,-0.145 -0.276,-0.289 -0.407,-0.431 0.077,-0.572 -0.082,-1.1429 -0.07,-1.7165 0.02,-0.2484 -0.162,-0.5036 -0.415,-0.5088 -0.328,-0.0395 -0.612,-0.1917 -0.893,-0.3397 -0.02,-0.6039 0.003,-1.2094 -0.012,-1.8122 -0.1,-1.4051 -0.866,-0.9207 -1.047,-0.9041 -0.306,0.1149 -0.624,0.057 -0.928,-0.0067 -0.85,-0.189 -1.738,-0.1666 -2.598,-0.0793 -0.47,0.3225 -1.052,0.1363 -1.569,0.2578 -0.179,0.3755 -0.259,0.8049 -0.684,0.9807 -0.075,-0.0964 -0.142,-0.1929 -0.201,-0.2906 -0.177,-1.7381 -0.087,-3.4882 -0.1,-5.2328 -1.176,-0.4503 -4.227,-0.3282 -5.373,-0.8352 -1.241,-0.5354 -2.745,-0.362 -3.877,0.3317 -1.855,1.984 -1.467,2.4174 -1.614,3.7828 -0.151,0.3636 -0.37,0.694 -0.552,1.0429 0.363,0.0052 0.739,0.0542 0.985,0.3543 -0.94,0.5142 -1.929,1.0046 -2.986,1.2028 -0.346,0.8419 -1.102,1.3944 -1.83,1.8835 0.186,0.2644 0.027,0.5486 -0.078,0.8117 -0.169,-0.1826 -0.305,-0.382 -0.422,-0.5921 -0.607,0.0753 -1.214,0.1706 -1.825,0.1323 -0.416,-0.0423 -0.587,0.4665 -0.97,0.5301 -0.351,0.0702 -0.654,0.2604 -0.96,0.4309 -0.47,0.0463 -0.88,-0.2762 -1.33,-0.37 -0.035,0.238 -0.067,0.4775 -0.095,0.7175 -0.813,-0.3223 -1.357,-1.0598 -2.108,-1.4816 -0.202,-0.0686 -0.411,0.004 -0.605,0.0092 -0.161,2.4944 0.219,6.2004 0.053,7.8804 -0.09,0.13 -0.264,0.108 -0.391,0.14 -0.072,-0.176 -0.139,-0.348 -0.206,-0.519 -0.522,0.242 -1.054,0.465 -1.572,0.712 -0.094,0.596 -0.02,1.195 0.06,1.787 -0.316,0.58 -0.169,1.249 -0.082,1.869 -0.701,0.329 -1.497,0.328 -2.233,0.542 -0.162,-0.434 -0.353,-0.858 -0.445,-1.311 0.375,-0.016 0.756,-0.02 1.139,-0.037 -0.105,-0.394 -0.614,-0.322 -0.925,-0.421 -0.1,-0.158 -0.192,-0.311 -0.286,-0.464 0.156,-0.15 0.316,-0.301 0.48,-0.452 -0.125,-0.16 -0.249,-0.318 -0.366,-0.476 0.231,-0.263 0.241,-0.6 0.159,-0.924 0.371,-0.008 0.749,-0.025 1.112,-0.144 -0.239,-0.388 -0.776,-0.317 -1.154,-0.462 0.373,-0.896 0.381,-0.579 -0.007,-1.291 0.166,-0.129 0.338,-0.255 0.509,-0.384 0.018,-0.337 0.04,-0.691 -0.134,-0.992 -0.43,-0.34 -0.758,-0.83 -1.32,-0.951 -0.358,-1.727 -0.346,0.92 -0.12,-3.4046 -0.432,-0.1415 -0.853,-0.3066 -1.27,-0.4799 -1.129,0.7454 -1.256,0.138 -2.666,0.3899 -1.256,-0.2564 -0.937,0.0566 -4.52,-0.0108 -0.053,-0.0661 -0.102,-0.1268 -0.147,-0.185 -0.557,0.0622 -1.119,0.0806 -1.679,0.0674 0.068,-1.015 -0.191,-2.0817 0.194,-3.0532 0.229,-0.5709 -0.238,-1.0983 -0.201,-1.6695 0.052,-2.8404 -0.157,-2.1984 -0.266,-6.3497 -0.828,-0.0107 -1.651,0.0013 -2.474,-0.0012 0.017,-0.0662 0.047,-0.1997 0.064,-0.2656 -0.291,-0.004 -0.581,-0.0067 -0.865,-0.008 -0.082,-0.1598 -0.154,-0.3185 -0.224,-0.4771 -0.064,-0.0132 -0.196,-0.0396 -0.261,-0.053 0.224,-0.222 0.241,-0.5222 -0.04,-0.7044 -0.174,0.173 -0.29,0.4652 -0.574,0.4533 -0.485,0.1494 -1.002,-0.1865 -1.442,0.1479 -0.075,-0.1561 -0.338,-8.4849 -0.279,-9.4942 -0.097,-0.0937 -0.186,-0.1865 -0.268,-0.279 -0.177,0.0806 -0.351,0.1611 -0.517,0.2405 -0.137,-0.7587 0.049,-1.54 -0.14,-2.2867 -0.93,-0.0542 -0.211,1.1272 -0.432,2.7531 -0.085,0.616 0.136,1.2175 0.114,1.8334 0.144,2.6845 -0.007,2.0586 0.072,6.5215 -0.171,0.0199 -0.336,0.041 -0.497,0.0622 -0.052,0.2128 -0.087,0.4309 -0.177,0.6318 -0.328,0.0555 -0.233,-0.3583 -0.313,-0.5537 -1.492,0.2648 -0.609,0.7387 -2.335,-0.0279 -0.271,0.3476 -0.433,0.7534 -0.49,1.1896 -0.81,0.824 -1.442,-0.4901 -3.247,0.3158 0.147,0.0885 0.301,0.177 0.457,0.2655 -0.186,0.2313 -0.358,0.4732 -0.48,0.7415 -0.134,0.0279 -0.263,0.057 -0.387,0.0861 -0.252,1.2067 0.534,0.4662 -0.055,1.4591 0.084,0.4923 0.102,3.6684 0.156,4.0379 0.336,1.8446 -0.286,3.7189 0.46,4.0922 -0.338,0.5987 -0.203,1.3558 -0.022,1.9908 -1.377,0.263 -0.107,-0.248 -1.902,0.835 -0.027,0.164 -0.047,0.329 -0.065,0.494 -6.666,0.139 -3.058,-0.114 -5.848,-0.168 -0.127,-0.182 -0.246,-0.368 -0.366,-0.551 -0.206,0.226 -0.415,0.471 -0.728,0.535 -0.227,1.302 0.144,2.606 0.03,3.91 -0.04,0.515 -0.264,1.014 -0.142,1.536 -0.12,0.126 -0.231,0.255 -0.336,0.387 0.137,0.196 0.274,0.401 0.391,0.616 -0.16,0.096 -0.316,0.195 -0.463,0.299 0.177,0.144 0.363,0.288 0.545,0.44 -0.145,0.164 -0.281,0.327 -0.418,0.49 0.122,0.155 0.249,0.315 0.368,0.479 -0.336,0.058 -0.689,0.1 -0.962,0.316 -0.702,0.405 0.141,3.77 -0.483,6.447 -0.378,0.06 -0.758,0.091 -1.129,0.139 0.008,0.592 0.314,11.003 0.194,12.067 -0.151,0.081 -0.296,0.162 -0.44,0.242 -0.02,0.22 -0.05,0.439 -0.084,0.657 -0.446,-0.071 -0.893,-0.082 -1.338,-0.096 -0.167,-1.045 -0.192,-7.513 -0.202,-7.645 -0.383,-0.118 -0.78,-0.155 -1.176,-0.163 -0.134,-0.186 -0.278,-0.357 -0.435,-0.515 0.308,-0.365 0.107,-0.78 0.022,-1.181 0,-0.001 -0.248,-2.941 -0.005,-4.223 -0.303,-0.244 -0.619,-0.602 -1.046,-0.491 -0.383,0.076 -0.736,-0.126 -1.104,-0.165 -0.234,0.046 -0.441,0.185 -0.672,0.207 -5.376,0.121 -1.638,0.544 -4.364,-0.07 0.092,-0.082 0.189,-0.162 0.291,-0.242 -0.375,-0.404 -0.236,-0.986 -0.278,-1.485 0,0 -0.164,-15.2676 -0.164,-15.2679 -0.008,-0.5155 -0.217,-1.0098 -0.15,-1.5292 -0.139,-0.4837 0.09,-0.9608 -0.047,-1.446 0.055,-0.3225 0.085,-0.6477 -0.142,-0.9145 0.08,-0.0107 0.237,-0.0291 0.316,-0.0396 -0.288,-0.9846 -0.022,-2.0104 -0.209,-3.0042 -0.097,-0.6055 0.232,-1.3072 -0.226,-1.8147 0.114,-0.0674 0.234,-0.1348 0.356,-0.2009 -0.112,-0.1348 -0.224,-0.2671 -0.331,-0.3979 0.472,-0.6833 -0.085,-1.4909 0.184,-2.2101 -0.435,-0.6959 -0.177,-0.5415 0.032,-0.9623 -0.122,-0.1017 -0.238,-0.2009 -0.353,-0.2974 0.052,-0.181 0.11,-0.3622 0.167,-0.5418 -0.157,-0.0318 -0.309,-0.0621 -0.455,-0.0897 -0.122,-0.2512 -0.239,-0.5011 -0.346,-0.7547 0.366,-0.1825 0.736,-0.3635 1.097,-0.5592 0.002,-0.0846 0.002,-0.2539 0.005,-0.3385 -1.027,-0.2272 -2.082,-0.1611 -3.121,-0.1969 -0.236,-0.144 -0.507,-0.3409 -0.778,-0.1574 -0.545,0.3118 -1.184,0.1323 -1.773,0.2141 -0.662,0.1574 -1.321,-0.1072 -1.984,-0.0159 0.074,0.1387 0.159,0.275 0.246,0.4123 -0.5,-0.0799 -0.689,-0.375 -1.699,0.2049 -0.154,0.1718 -0.281,0.366 -0.415,0.5525 0.552,0.2247 1.141,0.2327 1.721,0.1335 -0.005,0.1614 -0.005,0.3225 -0.003,0.4864 -0.499,-0.004 -0.728,0.4533 -1.022,0.7758 0.212,0.037 0.431,0.0609 0.654,0.082 -0.189,0.1363 -0.373,0.275 -0.549,0.419 -0.035,0.5394 0.015,1.0864 -0.092,1.6205 0.104,0.0781 0.211,0.1587 0.323,0.2405 -0.114,0.2814 -0.244,0.5552 -0.38,0.8248 0.161,0.0489 0.328,0.1017 0.502,0.1586 -0.149,0.0992 -0.291,0.1997 -0.43,0.3014 0.097,0.0582 0.196,0.1163 0.303,0.1758 -0.149,0.1044 -0.219,0.2616 -0.273,0.4257 0.119,0.0251 0.358,0.078 0.477,0.1044 -0.147,0.1957 -0.296,0.3872 -0.44,0.5829 0.139,0.1956 0.286,0.3871 0.44,0.5776 -0.144,0.177 -0.291,0.3503 -0.443,0.5182 0.127,0.1519 0.259,0.3053 0.391,0.46 -0.144,0.1467 -0.289,0.2882 -0.401,0.456 0.063,0.3317 0.483,0.1878 0.726,0.2711 -0.141,0.366 -0.711,0.3237 -0.75,0.7546 0.293,0.0199 0.591,0.0331 0.892,0.061 -0.261,0.2061 -0.549,0.37 -0.815,0.5629 -0.162,0.2947 0.278,0.4454 0.437,0.6227 -0.072,0.2113 -0.211,0.3794 -0.383,0.5154 0.067,0.0463 0.202,0.1388 0.269,0.185 -0.092,0.2049 -0.189,0.4058 -0.313,0.5936 0.288,0.411 -0.043,0.9396 0.263,1.343 -0.052,0.1479 -0.156,0.2921 -0.132,0.456 0.087,0.1534 0.286,0.2524 0.316,0.4361 -0.074,0.1599 -0.184,0.2987 -0.278,0.4429 0.062,0.1559 0.126,0.3106 0.194,0.4692 -0.087,0.1415 -0.169,0.2855 -0.244,0.4294 0.087,0.138 0.181,0.277 0.281,0.415 -0.087,0.164 -0.167,0.33 -0.239,0.499 0.197,0.325 0.144,0.694 0.052,1.044 0.082,0.1 0.172,0.202 0.267,0.305 -0.117,0.142 -0.232,0.283 -0.341,0.427 0.092,0.19 0.189,0.379 0.291,0.57 -0.1,0.097 -0.197,0.197 -0.286,0.297 0.139,0.335 0.147,0.694 0.064,1.047 0.187,0.067 0.368,0.133 0.562,0.206 -0.179,0.218 -0.38,0.415 -0.576,0.612 0.184,0.136 0.373,0.272 0.562,0.414 -0.162,0.136 -0.324,0.267 -0.485,0.4 0.01,0.068 0.027,0.204 0.037,0.271 0.184,0.047 0.373,0.09 0.569,0.138 -0.181,0.209 -0.671,0.346 -0.509,0.683 0.161,0.093 0.457,0.052 0.502,0.287 -0.177,0.155 -0.366,0.289 -0.55,0.431 0.132,0.131 0.271,0.264 0.413,0.398 -0.293,0.335 -0.094,0.76 -0.169,1.148 -0.099,0.372 0.122,0.733 0.025,1.108 0.052,0.49 -0.206,1.031 0.144,1.454 -0.117,0.146 -0.229,0.293 -0.338,0.442 0.316,0.317 0.53,0.115 0.012,0.967 0.107,0.132 0.219,0.267 0.331,0.403 -0.089,0.131 -0.281,0.248 -0.216,0.432 0.067,0.653 0.204,1.323 0.049,1.972 0.09,2.832 0.008,4.111 0.008,4.111 -0.293,-0.012 -0.609,0.027 -0.843,-0.173 -0.316,-0.254 -0.734,-0.368 -0.965,-0.71 0.139,-0.123 0.284,-0.242 0.433,-0.362 -0.172,-0.192 -0.418,-0.305 -0.562,-0.509 -0.097,-0.313 -0.08,-0.642 -0.07,-0.964 -0.186,-0.091 -0.37,-0.175 -0.552,-0.254 0.02,-0.3 -0.017,-0.6 -0.042,-0.896 0.169,-0.039 0.353,-0.074 0.53,-0.115 -0.174,-0.027 -0.343,-0.054 -0.508,-0.078 -0.005,-0.393 0,-1.375 -0.353,-1.42 -0.723,-0.171 -1.429,-0.414 -2.178,-0.446 -0.067,-0.738 -0.423,-18.8284 -0.423,-18.8284 0.04,-0.5338 0.063,-1.0983 -0.201,-1.5834 -0.328,-0.177 -0.761,-0.0701 -1.114,-0.2168 0.107,-0.2154 0.214,-0.4334 0.313,-0.6557 0.453,-0.1269 0.928,-0.2009 1.341,-0.4441 -0.515,-0.5918 -2.763,-0.1092 -4.068,-0.7177 -0.729,-0.177 -3.37,0.2107 -4.586,0.7865 0.003,0.0781 0.008,0.234 0.01,0.3119 0.398,0.1148 0.861,0.23 1.032,0.6581 -0.338,0.1229 -0.746,0.2077 -0.955,0.5222 0.122,0.0264 0.363,0.0781 0.485,0.1032 -0.201,0.1786 -0.415,0.3409 -0.626,0.5023 0.104,0.2129 0.286,0.3675 0.479,0.5035 -0.188,0 -0.375,0.0028 -0.559,0.0053 0.254,0.5331 0.321,2.3798 0.303,2.5693 0.112,0.0766 0.227,0.1547 0.346,0.234 -0.177,0.1363 -0.356,0.2735 -0.525,0.4123 0.102,0.3158 0.331,0.5473 0.634,0.6808 -0.179,0.1455 -0.36,0.2922 -0.529,0.4454 0.122,0.1643 0.253,0.3263 0.39,0.4873 -0.082,0.142 -0.159,0.284 -0.229,0.431 0.095,0.181 0.189,0.366 0.286,0.553 -0.109,0.14 -0.211,0.281 -0.313,0.424 0.194,0.094 0.385,0.196 0.577,0.3 -0.199,0.169 -0.4,0.338 -0.577,0.531 0.095,0.028 0.286,0.085 0.381,0.114 -0.137,0.457 -0.172,0.932 -0.155,1.408 -0.082,0.317 -0.156,0.646 0.06,0.933 -0.092,0.159 -0.181,0.317 -0.264,0.481 0.222,0.132 0.448,0.262 0.692,0.361 -0.177,0.067 -0.351,0.135 -0.518,0.211 0.132,0.411 0.165,0.871 -0.161,1.206 0.119,0.157 0.244,0.314 0.373,0.472 -0.182,0.185 -0.356,0.374 -0.53,0.561 0.11,0.161 0.229,0.324 0.361,0.478 -0.047,0.049 -0.147,0.147 -0.194,0.196 0.288,1.457 0.089,8.247 0.102,8.79 -0.731,-0.014 -1.465,-10e-4 -2.188,0.113 -0.033,0.457 -0.033,0.918 0.034,1.373 -0.154,0.013 -0.308,0.028 -0.455,0.043 0.07,0.324 0.117,0.653 0.13,0.988 -0.229,0.024 -0.453,0.047 -0.674,0.072 0.082,0.749 -0.239,1.464 -0.162,2.212 0.172,0.527 -0.102,1.084 0.182,1.594 -0.289,0.088 -0.714,0.275 -0.92,-0.041 -0.187,-1.407 0.069,-4.19 -0.033,-7.981 -0.206,-0.202 -0.514,-0.231 -0.766,-0.344 -0.009,-0.446 -0.009,-0.895 -0.032,-1.34 -0.624,0.668 -0.266,0.853 -0.134,1.395 -1.02,0.248 -4.608,-0.002 -9.884,0.13 -1.261,-0.076 -0.425,3.334 -0.734,6.805 -0.517,0.18 -1.062,0.244 -1.586,0.386 0.112,0.191 0.234,0.384 0.348,0.583 -0.259,0.046 -0.512,0.129 -0.773,0.105 -0.602,-0.108 -1.152,0.269 -1.751,0.244 -0.818,-0.03 -1.634,-0.064 -2.447,-0.096 0.135,-2.603 -0.206,-9.059 -0.082,-10.373 -0.062,-0.058 -0.186,-0.176 -0.248,-0.234 -0.01,0.321 -0.01,0.644 -0.015,0.966 -0.063,0.003 -0.184,0.007 -0.247,0.01 -0.089,-3.738 0.212,-2.363 -0.387,-3.719 0.295,0.122 0.599,0.24 0.912,0.323 -0.229,-0.409 -0.597,-0.342 -0.268,-2.137 -0.172,-0.023 -0.339,-0.043 -0.503,-0.058 -0.141,-0.656 -0.169,-1.324 -0.179,-1.991 -1.084,-0.358 -0.281,-0.499 -2.752,-0.612 v 0.264 c 0.517,0.027 1.134,-0.121 1.536,0.306 -1.074,0.149 -2.173,-0.005 -3.235,0.213 -0.144,-0.09 -0.251,-0.29 -0.432,-0.265 -1.333,0.03 -0.955,0.162 -1.007,1.99 -0.155,0.212 -0.463,0.231 -0.682,0.347 -0.087,0.586 -0.263,1.235 0.09,1.771 -0.157,0.008 -0.309,0.017 -0.458,0.028 -0.457,0.536 -0.328,1.269 -0.301,1.917 0.135,0.095 0.274,0.192 0.418,0.288 -0.241,0.193 -0.345,0.48 -0.442,0.761 0.149,0.104 0.303,0.208 0.46,0.314 -0.147,0.146 -0.291,0.292 -0.433,0.439 -0.04,2.022 0.139,8.954 0.117,11.851 -1.932,0.025 -3.867,-0.024 -5.796,0.021 -0.028,3.43 0.099,6.856 0.099,10.287 -0.393,0.003 -0.781,-0.062 -1.171,-0.079 -0.473,0.039 -0.945,0.086 -1.42,0.076 -0.348,-0.394 -0.216,-0.891 -0.159,-1.356 -0.018,-0.132 -0.657,-22.401 -0.239,-23.592 0.246,-0.667 -0.229,-1.322 -0.164,-2.001 -0.045,-0.423 0.124,-0.922 -0.174,-1.276 -0.229,-0.277 -0.47,-0.542 -0.671,-0.837 -0.075,-0.002 -0.224,-0.009 -0.299,-0.012 -0.054,0.627 -0.171,1.249 -0.313,1.863 -0.341,-0.008 -0.674,-0.011 -1.007,-0.012 -0.112,-0.152 -0.219,-0.304 -0.323,-0.453 -0.082,0.017 -0.252,0.053 -0.336,0.071 -0.025,0.099 -0.075,0.297 -0.1,0.398 -0.502,-0.109 -1.009,-0.101 -1.506,0.001 -0.082,-0.163 -0.155,-0.324 -0.222,-0.486 -0.243,0.024 -0.485,0.05 -0.721,0.08 -0.253,-0.313 -0.211,-0.709 -0.087,-1.062 -0.129,-0.003 -0.251,-0.004 -0.373,-0.004 0.047,0.268 0.139,0.565 -0.072,0.791 -0.736,0.863 -0.465,0.546 -2.215,0.682 -0.175,-0.21 -0.368,-0.409 -0.644,-0.452 -0.028,0.118 -0.083,0.355 -0.11,0.473 -0.298,-0.056 -0.567,-0.192 -0.855,-0.268 -0.246,0.105 -0.465,0.255 -0.692,0.393 -0.049,0.342 0.045,6.476 0.05,6.61 -0.415,0.024 -0.81,-0.331 -1.208,-0.139 -0.592,0.237 -1.288,0.262 -1.865,-0.013 -0.662,0.342 -1.887,0.391 -2.432,-0.003 -0.216,0.155 -0.47,0.257 -0.736,0.222 -0.52,-0.043 -1.114,0.086 -1.549,-0.264 -0.139,0.107 -0.266,0.256 -0.455,0.24 -0.51,0.019 -1.022,0.059 -1.527,-10e-4 -0.159,-0.092 -0.283,-0.227 -0.415,-0.344 -0.03,0.088 -0.092,0.264 -0.122,0.351 -0.923,0.054 -1.845,0.045 -2.765,0.042 -0.075,-0.225 -0.037,-0.555 -0.304,-0.648 -0.855,0.921 -0.159,4.724 -0.3,8.427 -0.336,0.009 -0.672,0.014 -1.002,-0.003 -0.112,0.1 -0.219,0.204 -0.324,0.306 -0.338,-0.01 -0.674,-0.015 -1.007,-0.023 -0.154,-1.125 -0.079,-17.857 -0.363,-19.679 0.07,-0.609 0.023,-1.222 0.07,-1.833 -3.019,-0.096 -6.49,0.128 -7.244,-0.167 -0.479,-0.127 -0.942,-0.326 -1.434,-0.375 -0.179,0.127 -0.107,0.343 -0.1,0.527 -0.723,-10e-4 -1.449,-0.015 -2.173,0.011 -0.015,0.341 -0.017,0.683 -0.02,1.027 0.057,0.053 0.169,0.157 0.226,0.21 -0.795,0.454 -0.236,1.684 -0.716,3.119 0.08,0.404 0.378,25.844 0.184,26.428 0.067,0.873 0.092,1.751 0.033,2.627 -9.551,0.132 -5.767,-0.404 -8.95,0.845 -0.019,0.207 -0.037,0.416 -0.047,0.628 -0.574,0.1 -1.181,-0.031 -1.728,0.21 -0.5,0.104 -1.017,0.07 -1.522,0.084 -0.047,-0.243 0.028,-0.532 -0.122,-0.738 -0.211,-0.098 -0.447,-0.105 -0.669,-0.15 -0.134,-2.65 0.202,-6.861 -0.3,-10.874 -0.097,-0.162 -1.927,-3.091 -2.199,-2.92 -0.706,0.78 -1.166,1.756 -1.862,2.535 -0.659,-5.512 -2.971,-56.2025 -2.775,-59.6242 1.024,-0.041 2.094,-0.1084 3.024,-0.5856 0.758,-0.8837 0.509,-1.5834 -0.346,-2.362 0.311,-0.3899 0.704,-0.7032 1.057,-1.056 -0.199,-0.9822 0.204,-1.9323 0.286,-2.9014 -0.134,-0.1071 -0.306,-1.5081 -0.776,-1.8134 -0.283,-0.2129 -0.602,-0.37 -0.898,-0.5605 -0.213,-0.374 0.003,-0.92 -0.41,-1.1828 -0.346,-0.4086 -0.917,-0.2313 -1.377,-0.3293 -0.965,-0.6214 -0.557,-1.7485 -0.632,-3.5727 -1.005,-0.0405 -0.746,-0.3707 -0.751,-9.9897 -0.047,-7.0278 -0.341,-4.3488 0.639,-7.0455 0.03,-0.0773 -0.716,-1.0319 -0.808,-1.1125 -0.624,-0.6465 -0.202,0.007 -0.274,-3.0851 0.102,-0.7745 -0.069,-1.5451 -0.102,-2.3179 -0.029,-0.7492 0.035,-1.5042 0.035,-2.2553 0,-3e-4 -0.318,-6.5802 -0.318,-6.5802 -0.256,-2.1693 -0.47,1.1883 -0.517,-6.299 -0.038,-5.75119 0.186,-7.01213 -0.741,-6.87909 -0.154,1.2117 0.066,10.83269 0.073,10.96579 -0.471,1.4302 -0.631,0.9155 -0.582,3.5963 0.005,0.2419 -0.593,6.8084 -0.191,8.6179 0.08,0.4165 -0.011,3.5165 -0.041,3.9375 -0.139,0.5669 -0.945,0.7969 -0.828,1.4514 -0.07,0.6371 0.573,1.0799 0.518,1.7142 -0.005,1.6747 -0.221,14.1707 0.059,15.2069 -1.912,0.546 -0.305,1.6364 -0.661,3.652 -0.657,0.1415 -1.329,0.2392 -1.968,0.4414 -0.546,0.3859 -0.257,1.1604 -0.521,1.6878 -0.332,0.3676 -0.832,0.4996 -1.207,0.8064 -0.21,0.7905 -0.218,1.631 -0.058,2.4334 0.115,0.5684 -0.066,1.2331 0.324,1.7222 0.14,0.2367 0.46,0.4282 0.37,0.7427 -0.33,1.0126 -0.902,1.8973 1.447,2.9476 0.517,0.0714 1.044,0.0395 1.568,0.0938 0.085,0.917 0.029,6.4051 0.053,14.945 0.024,0.6701 -0.265,1.3044 -0.205,1.9773 0.157,4.9507 -0.597,10.0047 -0.258,14.4111 0.078,1.1436 -0.326,0.9623 -0.337,2.9095 0.045,9.302 -0.321,0.409 -0.26,9.649 -0.016,3.013 -0.316,-1.003 -0.262,6.741 0.037,0.761 -0.345,1.481 -0.237,2.245 0.11,0.837 -0.108,1.675 0.004,2.512 0.064,0.439 0.021,0.888 -0.136,1.304 -0.33,0.828 -0.079,3.064 -0.188,4.521 -0.491,2.464 -0.073,1.708 -0.179,4.23 -0.023,0.585 -0.369,1.109 -0.332,1.703 -0.068,1.442 0.444,2.476 -1.757,2.096 -0.258,-2.602 0.146,-11.031 -0.108,-12.09 -0.132,-0.382 -0.562,-0.587 -0.682,-0.969 -0.044,-0.455 -0.016,-0.91 -0.012,-1.365 -0.271,-0.077 -0.539,-0.155 -0.804,-0.237 -0.074,-1.979 0.394,-3.378 -1.486,-3.259 -0.848,0.05 -2.263,-0.334 -2.361,1.335 -1.191,0.014 -2.389,-0.063 -3.573,0.033 -0.607,0.291 -0.517,0.981 -0.516,1.541 -0.522,0 -1.044,0.006 -1.563,0.016 -0.079,3.563 0.148,3.703 0.051,5.349 -0.346,-0.024 -0.69,-0.068 -1.033,-0.042 -0.249,-3.171 0.168,-0.692 -0.225,-3.936 -0.945,-0.632 -2.126,-0.084 -3.13,-0.517 -0.403,0.024 -0.794,0.282 -1.217,0.163 -0.15,-0.902 0.097,-6.282 -0.098,-7.333 -1.785,-0.285 0.923,-0.617 -5.2,-0.567 -0.118,5.332 0.069,3.716 -0.985,4.319 -0.523,0.126 -0.639,0.731 -0.605,1.194 0.011,0.239 0.094,4.368 -0.123,5.197 -1.896,0.574 -1.935,-0.947 -3.166,2.153 -0.696,0.209 -1.526,-0.147 -2.115,0.359 -0.69,0.464 -1.573,0.184 -2.342,0.159 -0.031,-0.587 0.161,-1.244 -0.181,-1.766 -0.262,0.073 -0.519,0.154 -0.778,0.227 -0.022,-0.42 -0.067,-0.836 -0.1,-1.253 -2.98,-0.802 -5.036,-0.086 -5.803,0.023 -0.002,0.283 -0.008,0.567 -0.014,0.852 -0.351,-0.055 -0.699,-0.091 -1.051,-0.099 0.007,1.549 0.026,3.098 -0.007,4.648 -14.484,-0.076 -14.929,0.111 -15.249,-0.096 -0.259,-0.42 -0.346,-0.536 -0.252,-5.387 0.008,-0.541 0.581,-1.013 0.294,-1.553 -0.148,-0.365 0.02,-0.76 -0.108,-1.129 -0.697,0.016 -1.393,0.001 -2.089,0.004 -0.585,-0.018 -1.12,0.291 -1.705,0.272 -0.976,0 -1.953,-0.021 -2.928,0.008 0.731,0.132 3.316,-0.003 4.126,-0.057 -0.864,0.258 -1.774,0.072 -2.657,0.129 -0.703,0.004 -1.438,0.104 -2.107,-0.16 0.164,-0.047 0.333,-0.082 0.503,-0.119 -0.846,-0.103 -1.699,-0.069 -2.547,-0.066 -0.076,0.112 -0.147,0.227 -0.218,0.343 0.207,1.187 0.071,2.406 0.091,3.606 -0.549,-0.306 -1.178,-0.157 -1.753,-0.033 -0.399,0.13 -0.711,0.431 -1.017,0.704 -0.442,0.381 -0.258,1.057 -0.624,1.489 -0.292,0.388 -0.376,0.912 -0.731,1.253 -1.108,0.112 -3.917,0.132 -4.485,0.034 -0.263,-1.306 -0.335,-1.13 -1.852,-1.595 -0.794,-1.677 -0.75,-1.784 -1.139,-1.974 -3.55,-0.623 -3.428,-0.754 -4.101,0.004 -0.207,0.673 0.158,1.337 0.121,2.015 -0.013,1.75 0.011,3.5 -0.012,5.251 -0.233,-0.003 -0.464,-0.005 -0.691,-0.008 -0.017,-0.262 -0.028,-0.519 -0.04,-0.777 -8.12,-0.025 -3.634,0.175 -8.976,-0.007 0.022,-0.776 0.065,-1.557 -0.059,-2.326 -0.091,-0.579 0.037,-1.162 -0.022,-1.74 -0.184,-0.499 -0.454,-0.966 -0.57,-1.488 -1.071,-0.012 -2.143,0.039 -3.211,-0.016 -0.634,-0.231 -1.041,-0.864 -1.275,-1.471 -1.936,-0.482 -2.313,0.247 -2.952,0.295 -0.428,-0.164 -0.371,-0.714 -0.46,-1.082 -0.229,-0.044 -0.455,-0.088 -0.681,-0.129 -0.38,-1.008 -0.265,-2.087 -0.284,-3.139 -0.541,-0.014 -1.084,0.024 -1.62,-0.032 -0.361,-0.229 -0.575,-0.616 -0.902,-0.882 -0.951,-0.315 -1.955,0.023 -2.929,-0.095 -0.807,-0.103 -1.615,0.009 -2.421,0.033 -0.138,0.373 -0.369,0.698 -0.545,1.051 -0.198,1.081 0.016,2.176 -0.099,3.261 -0.117,2.216 0.807,4.001 -1.874,3.506 0.055,-3.32 0.588,-2.009 -7.306,-2.364 -0.091,-1.189 0.299,-4.067 -0.774,-4.609 -0.623,-0.097 -1.256,-0.04 -1.878,-0.131 -0.048,-0.353 -0.095,-0.703 -0.142,-1.055 -0.637,-0.174 -1.218,-0.462 -1.719,-0.891 -5.736,-2.076 -3.892,0.307 -4.38,1.551 -0.224,0.419 -0.738,0.411 -1.144,0.489 -0.37,1.082 -0.424,2.24 -0.295,3.372 0.115,0.733 -0.355,1.383 -0.331,2.108 0.043,9.047 0.144,9.018 -0.437,9.177 -0.561,0.158 -1.169,0.227 -1.738,0.062 -0.39,-0.144 -0.692,0.275 -1.08,0.244 -2.824,0.054 -3.758,-0.319 -3.863,0.952 -0.093,1.813 0.202,3.637 -0.028,5.445 -0.585,-0.196 -1.016,-0.838 -0.966,-1.455 -0.024,-8.982 0.434,-25.731 0.277,-26.855 -0.025,-0.444 -0.239,-0.856 -0.22,-1.303 0.002,-0.511 -0.105,-1.01 -0.189,-1.51 -0.812,-0.315 -1.703,0.014 -2.541,-0.157 -0.519,-0.28 -0.546,-0.909 -0.64,-1.421 -0.53,-0.157 -1.081,-0.131 -1.625,-0.129 -0.651,0.026 -1.228,-0.55 -1.879,-0.262 -0.076,0.34 -0.132,0.694 -0.298,1.006 -0.2382,0.25 -0.587,0.342 -0.8857,0.495 -0.6925,0.297 -1.2226,0.893 -1.9708,1.068 -0.8661,0.418 -0.7634,-0.282 -0.8818,2.066 -0.221,3.201 0.2457,2.426 0.0622,6.013 -0.0303,0.179 0.1283,0.295 0.2248,0.426 -0.2835,0.414 -0.2609,0.54 -0.2444,2.87 -0.0107,0.187 0.1203,0.336 0.1942,0.499 -0.0794,0.132 -0.1574,0.264 -0.2353,0.399 0.0806,0.128 0.1639,0.259 0.2472,0.391 -0.3621,1.537 -0.3277,3.127 -0.3173,4.695 0.1467,0.067 0.2947,0.136 0.4441,0.206 -0.14,0.13 -0.3305,0.222 -0.4138,0.401 0.045,0.157 0.1363,0.297 0.2181,0.441 -0.554,0.849 -0.2009,3.553 -0.2946,4.051 -0.1323,0.907 -0.0396,1.821 -0.0344,2.734 -1.3111,0.087 -2.6263,-0.019 -3.9374,0.05 -0.0371,0.037 -0.1112,0.112 -0.148,0.149 -0.0714,0.509 0.1097,1.091 -0.279,1.508 -0.8066,-0.319 -0.6684,-0.613 -2.1583,-1.25 -0.0144,-1.198 0.0251,-2.395 -0.0132,-3.591 -0.1111,-0.916 -0.1111,-1.843 -0.049,-2.761 0.0144,-0.086 0.1644,-9.748 0.0383,-11.395 -0.0395,-0.475 -0.4138,-0.841 -0.4665,-1.311 -0.1111,-0.75 0.0475,-1.501 0.0331,-2.251 0,-0.513 -0.0686,-1.022 -0.0833,-1.534 -2.1556,-0.785 -6.0001,0.135 -7.0927,-0.611 -0.0303,-0.39 -0.045,-0.783 -0.0027,-1.172 0.0937,-0.637 -0.0873,-1.269 -0.0358,-1.907 -2.3272,-0.281 -1.6325,-0.909 -4.4333,-0.43 0.0132,0.337 0.041,0.673 0.1044,1.006 -0.4727,0.422 -0.0273,0.394 -2.863,0.365 -0.0555,0.636 -0.0318,1.274 -0.041,1.913 -0.801,0.083 -1.6193,-0.065 -2.4095,0.089 -0.3397,0.269 -0.2683,0.813 -0.3648,1.206 -0.2524,0.037 -0.5035,0.074 -0.7534,0.116 -0.053,0.283 0.1136,0.482 0.3463,0.618 -0.1176,0.124 -0.2551,0.234 -0.3436,0.384 -0.0027,0.677 0.1268,1.355 0.0318,2.032 -0.3856,0.523 -1.199,0.279 -3.1947,0.351 -0.0144,0.602 -0.0105,1.203 -0.0172,1.805 -0.2591,0.033 -0.5182,0.071 -0.7745,0.117 -0.004,0.089 -0.0145,0.266 -0.0184,0.353 0.2722,0.042 0.5458,0.09 0.8195,0.136 -0.0144,0.247 -0.0223,0.496 -0.0263,0.746 -0.6689,0.009 -1.3375,-0.008 -2.0052,0.021 0.2698,4.967 -0.1044,3.829 -0.3847,4.607 0.1371,1.443 -0.2332,6.809 -0.0569,8.956 -0.3158,0.085 -0.645,0.104 -0.9437,-0.047 -0.0554,-0.353 -0.2392,-0.645 -0.5472,-0.825 0.1713,-7.858 -0.1132,-7.18 0.1586,-7.583 -0.177,-0.424 -0.0714,-0.884 -0.0542,-1.326 0.0423,-1.34 -0.1176,-2.68 0.0554,-4.018 -1.109,-0.31 -2.2655,-0.322 -3.4075,-0.326 -0.012,-0.348 -0.0184,-0.696 -0.0239,-1.042 -6.305,0 -8.4439,-0.16 -7.32,0.444 -0.5793,0.906 0.0853,0.659 -0.2775,2.79 0.1336,0.147 0.2683,0.294 0.4019,0.444 -0.1878,0.02 -0.5302,-0.027 -0.4996,0.26 0.1335,1.476 -0.085,7.56 0.0726,8.98 0.0925,0.687 -0.1798,1.348 -0.2101,2.03 0,0 -0.0199,6.916 -0.0199,6.916 0.3504,0.004 0.702,0.012 1.0508,0.057 -0.7798,0.332 -1.6232,0.025 -2.4361,0.057 -0.0686,-0.149 -0.136,-0.298 -0.2036,-0.445 -2.4401,1.041 -2.5627,0.107 -3.611,0.165 -0.3252,-0.024 -0.6846,0.089 -0.9782,-0.094 -1.0772,-0.728 -1.2654,0.656 -3.6652,0.061 0,0 0.0865,-2.566 0.1032,-5.755 -2.688,-0.51 -5.549,-0.202 -7.0569,-0.378 -0.4282,-2.387 -0.0239,-9.799 -0.0278,-9.822 0.1012,-2.697 -0.236,-3.396 0.1255,-4.108 -0.7586,0.024 -1.4989,-0.145 -2.2404,-0.272 -0.8275,-0.012 -1.66,0.025 -2.4676,-0.194 -0.8089,0.039 -1.6205,0.008 -2.4294,0.046 -1.294,0.243 -2.6159,0.102 -3.9243,0.135 0.277,0.978 0.0751,6.158 0.0646,6.29 -0.0584,0.615 0.4864,1.844 -0.6437,2.05 -0.8512,-0.045 -1.7063,0.016 -2.5537,-0.096 -0.6702,-0.085 -1.3351,0.051 -2.0037,0.058 -0.1462,-1.779 0.3317,-10.647 0.3041,-11.632 0.0318,-0.289 -0.2327,-0.491 -0.4983,-0.507 -1.7883,-0.316 -3.6242,0.075 -5.4085,-0.278 -1.1697,0.162 -2.3541,-10e-4 -3.5237,0.146 0,0 -0.4916,25.843 -0.4916,25.843 -0.0095,0.002 -0.0189,0.005 -0.0284,0.007 v 0.249 H 6.97283 C 6.95865,159.43 6.96089,175.485 6.97084,191.541 H 643.518 c 0.005,-2.954 0.013,-56.073 -0.005,-66.117 z M 25.1387,140.563 c -0.4178,0.155 -0.8367,-0.063 -1.2557,-0.086 -1.2821,-0.099 -2.5682,-0.066 -3.8517,-0.045 -0.1636,-0.596 0.0629,-7.814 0.1163,-8.035 0.1987,-0.282 0.3646,-0.083 4.2707,-0.141 0.2392,-0.016 0.4732,0.036 0.6953,0.12 0.1439,2.106 -0.0634,4.512 0.0251,8.187 z m 560.2563,-6.468 c 0.679,0.022 1.377,-0.098 2.054,-0.007 l 0.089,0.116 c -0.716,-0.055 -1.437,-0.063 -2.143,-0.109 z"
             fill="#1e3765"
             transform="matrix(1.50297,0,0,1,123.171,261)"
             id="path137" />
        </g>
      </g>
    </g>
  </g>
</svg>
